<svg width="16" height="16" viewBox="0 0 16 16" fill="none" xmlns="http://www.w3.org/2000/svg">
<path d="M12.1417 4.68983C12.672 4.68983 13.1018 4.25996 13.1018 3.72969C13.1018 3.19941 12.672 2.76953 12.1417 2.76953C11.6114 2.76953 11.1815 3.19941 11.1815 3.72969C11.1815 4.25996 11.6114 4.68983 12.1417 4.68983Z" fill="white"/>
<path d="M7.87066 3.89258C5.60175 3.89258 3.76257 5.73113 3.76257 8C3.76257 10.2689 5.60175 12.1081 7.87066 12.1081C10.1395 12.1081 11.978 10.2689 11.978 8C11.978 5.73113 10.1401 3.89258 7.87066 3.89258ZM7.87066 10.6669C6.39774 10.6669 5.20375 9.47286 5.20375 8C5.20375 6.52775 6.39774 5.33375 7.87066 5.33375C9.34352 5.33375 10.5369 6.52775 10.5369 8C10.5369 9.47286 9.34414 10.6669 7.87066 10.6669Z" fill="white"/>
<path d="M11.1732 1.01022C13.2774 1.01022 14.9892 2.72202 14.9892 4.82611V11.1739C14.9892 13.2786 13.278 14.9904 11.1732 14.9904H4.82611C2.72138 14.9904 1.00959 13.2786 1.00959 11.1739V4.82611C1.00959 2.72202 2.72138 1.01022 4.82611 1.01022H11.1732ZM11.1732 0H4.82611C2.1605 0 0 2.1605 0 4.82611V11.1739C0 13.8395 2.16113 16 4.82611 16H11.1739C13.8389 16 16 13.8395 16 11.1739V4.82611C16 2.1605 13.8382 0 11.1732 0Z" fill="white"/>
</svg>
