<svg width="1920" height="887" viewBox="0 0 1920 887" fill="none" xmlns="http://www.w3.org/2000/svg">
<g clip-path="url(#clip0_108_5)">
<rect width="1920" height="887" fill="white"/>
<g clip-path="url(#clip1_108_5)">
<rect width="1920" height="888" fill="#F8F8F8"/>
<g filter="url(#filter0_b_108_5)">
<path d="M1440.08 406.028C1391.47 434.792 1329.72 400.155 1328.91 343.682L1327.31 230.729C1326.51 174.256 1387.27 138.302 1436.68 166.011L1535.5 221.434C1584.9 249.143 1585.9 319.735 1537.3 348.498L1440.08 406.028Z" fill="#EF4D9C" fill-opacity="0.6"/>
</g>
<path d="M1614 563.547C1626.38 556.402 1641.62 556.402 1654 563.547L1739.57 612.953C1751.95 620.098 1759.57 633.303 1759.57 647.594V746.406C1759.57 760.697 1751.95 773.902 1739.57 781.047L1654 830.453C1641.62 837.598 1626.38 837.598 1614 830.453L1528.43 781.047C1516.05 773.902 1508.43 760.697 1508.43 746.406V647.594C1508.43 633.303 1516.05 620.098 1528.43 612.953L1614 563.547Z" fill="#71BD44"/>
<path opacity="0.7" d="M88.7139 267.063C102.312 262.668 117.222 265.861 127.827 275.44L165.601 309.558C176.206 319.137 180.895 333.646 177.902 347.62L167.242 397.392C164.249 411.366 154.029 422.681 140.431 427.076L91.9965 442.73C78.3984 447.125 63.4887 443.932 52.8835 434.353L15.1096 400.235C4.50448 390.656 -0.184848 376.147 2.80805 362.173L13.4683 312.401C16.4612 298.427 26.6816 287.112 40.2797 282.717L88.7139 267.063Z" fill="#FFDD00"/>
<g filter="url(#filter1_f_108_5)">
<path d="M903.102 167.601C910.23 179.987 910.21 195.235 903.048 207.601L870.73 263.402C863.568 275.768 850.352 283.374 836.062 283.355L771.578 283.267C757.288 283.248 744.093 275.606 736.964 263.22L704.799 207.332C697.67 194.946 697.691 179.698 704.853 167.332L737.171 111.531C744.333 99.1651 757.548 91.5591 771.839 91.5785L836.322 91.6662C850.613 91.6856 863.808 99.3275 870.936 111.713L903.102 167.601Z" fill="#50DAF5" fill-opacity="0.5"/>
</g>
<g opacity="0.5" filter="url(#filter2_bf_108_5)">
<path d="M1428 357C1428 531.522 1286.52 673 1112 673C937.478 673 796 531.522 796 357C796 182.478 937.478 41 1112 41C1286.52 41 1428 182.478 1428 357Z" fill="#FFDD00"/>
<path d="M1428 357C1428 531.522 1286.52 673 1112 673C937.478 673 796 531.522 796 357C796 182.478 937.478 41 1112 41C1286.52 41 1428 182.478 1428 357Z" fill="#FFDD00"/>
</g>
<g filter="url(#filter3_b_108_5)">
<path d="M961.483 520C975.417 511.956 992.583 511.956 1006.52 520C1020.45 528.044 1029.03 542.911 1029.03 559C1029.03 575.089 1020.45 589.956 1006.52 598C992.583 606.044 975.417 606.044 961.483 598C947.55 589.956 938.967 575.089 938.967 559C938.967 542.911 947.55 528.044 961.483 520Z" fill="#5EE5FF" fill-opacity="0.4"/>
</g>
<g filter="url(#filter4_b_108_5)">
<path d="M126.289 318.455C108.744 328.838 86.4518 316.335 86.1627 295.951L85.5845 255.179C85.2954 234.794 107.227 221.816 125.061 231.818L160.731 251.824C178.565 261.826 178.926 287.307 161.381 297.689L126.289 318.455Z" fill="#EF4D9C" fill-opacity="0.5"/>
</g>
<g filter="url(#filter5_b_108_5)">
<path d="M1784.16 413.011C1782.58 440.211 1752.08 455.593 1729.26 440.699L1683.63 410.909C1660.82 396.015 1662.8 362.015 1687.2 349.709L1736 325.097C1760.4 312.791 1788.92 331.409 1787.33 358.608L1784.16 413.011Z" fill="#50DAF5"/>
</g>
<g filter="url(#filter6_b_108_5)">
<path d="M1345.02 790.145C1353.58 813.511 1333.62 837.484 1309.09 833.297L1260.03 824.921C1235.5 820.734 1224.8 791.527 1240.77 772.348L1272.72 733.988C1288.69 714.81 1319.35 720.044 1327.91 743.41L1345.02 790.145Z" fill="#EF4D9C" fill-opacity="0.5"/>
</g>
<g filter="url(#filter7_b_108_5)">
<path d="M1703.36 395.069C1713.81 393.869 1724.11 398.336 1730.38 406.787C1736.64 415.238 1737.92 426.389 1733.74 436.039C1729.55 445.69 1720.53 452.374 1710.08 453.574C1699.63 454.774 1689.33 450.307 1683.07 441.857C1676.8 433.406 1675.52 422.255 1679.71 412.604C1683.9 402.953 1692.91 396.269 1703.36 395.069Z" fill="#F9931F" fill-opacity="0.6"/>
</g>
</g>
</g>
<defs>
<filter id="filter0_b_108_5" x="1247.3" y="76.4634" width="405.856" height="419.901" filterUnits="userSpaceOnUse" color-interpolation-filters="sRGB">
<feFlood flood-opacity="0" result="BackgroundImageFix"/>
<feGaussianBlur in="BackgroundImageFix" stdDeviation="40"/>
<feComposite in2="SourceAlpha" operator="in" result="effect1_backgroundBlur_108_5"/>
<feBlend mode="normal" in="SourceGraphic" in2="effect1_backgroundBlur_108_5" result="shape"/>
</filter>
<filter id="filter1_f_108_5" x="679.467" y="71.5784" width="248.967" height="231.777" filterUnits="userSpaceOnUse" color-interpolation-filters="sRGB">
<feFlood flood-opacity="0" result="BackgroundImageFix"/>
<feBlend mode="normal" in="SourceGraphic" in2="BackgroundImageFix" result="shape"/>
<feGaussianBlur stdDeviation="10" result="effect1_foregroundBlur_108_5"/>
</filter>
<filter id="filter2_bf_108_5" x="781" y="26" width="662" height="662" filterUnits="userSpaceOnUse" color-interpolation-filters="sRGB">
<feFlood flood-opacity="0" result="BackgroundImageFix"/>
<feGaussianBlur in="BackgroundImageFix" stdDeviation="7.5"/>
<feComposite in2="SourceAlpha" operator="in" result="effect1_backgroundBlur_108_5"/>
<feBlend mode="normal" in="SourceGraphic" in2="effect1_backgroundBlur_108_5" result="shape"/>
<feGaussianBlur stdDeviation="5" result="effect2_foregroundBlur_108_5"/>
</filter>
<filter id="filter3_b_108_5" x="923.967" y="498.967" width="120.067" height="120.066" filterUnits="userSpaceOnUse" color-interpolation-filters="sRGB">
<feFlood flood-opacity="0" result="BackgroundImageFix"/>
<feGaussianBlur in="BackgroundImageFix" stdDeviation="7.5"/>
<feComposite in2="SourceAlpha" operator="in" result="effect1_backgroundBlur_108_5"/>
<feBlend mode="normal" in="SourceGraphic" in2="effect1_backgroundBlur_108_5" result="shape"/>
</filter>
<filter id="filter4_b_108_5" x="65.5817" y="208.372" width="128.744" height="133.814" filterUnits="userSpaceOnUse" color-interpolation-filters="sRGB">
<feFlood flood-opacity="0" result="BackgroundImageFix"/>
<feGaussianBlur in="BackgroundImageFix" stdDeviation="10"/>
<feComposite in2="SourceAlpha" operator="in" result="effect1_backgroundBlur_108_5"/>
<feBlend mode="normal" in="SourceGraphic" in2="effect1_backgroundBlur_108_5" result="shape"/>
</filter>
<filter id="filter5_b_108_5" x="1647.65" y="301.226" width="159.746" height="165.28" filterUnits="userSpaceOnUse" color-interpolation-filters="sRGB">
<feFlood flood-opacity="0" result="BackgroundImageFix"/>
<feGaussianBlur in="BackgroundImageFix" stdDeviation="10"/>
<feComposite in2="SourceAlpha" operator="in" result="effect1_backgroundBlur_108_5"/>
<feBlend mode="normal" in="SourceGraphic" in2="effect1_backgroundBlur_108_5" result="shape"/>
</filter>
<filter id="filter6_b_108_5" x="1213.21" y="702.275" width="153.828" height="151.501" filterUnits="userSpaceOnUse" color-interpolation-filters="sRGB">
<feFlood flood-opacity="0" result="BackgroundImageFix"/>
<feGaussianBlur in="BackgroundImageFix" stdDeviation="10"/>
<feComposite in2="SourceAlpha" operator="in" result="effect1_backgroundBlur_108_5"/>
<feBlend mode="normal" in="SourceGraphic" in2="effect1_backgroundBlur_108_5" result="shape"/>
</filter>
<filter id="filter7_b_108_5" x="1662.28" y="379.876" width="88.8901" height="88.8906" filterUnits="userSpaceOnUse" color-interpolation-filters="sRGB">
<feFlood flood-opacity="0" result="BackgroundImageFix"/>
<feGaussianBlur in="BackgroundImageFix" stdDeviation="7.5"/>
<feComposite in2="SourceAlpha" operator="in" result="effect1_backgroundBlur_108_5"/>
<feBlend mode="normal" in="SourceGraphic" in2="effect1_backgroundBlur_108_5" result="shape"/>
</filter>
<clipPath id="clip0_108_5">
<rect width="1920" height="887" fill="white"/>
</clipPath>
<clipPath id="clip1_108_5">
<rect width="1920" height="888" fill="white"/>
</clipPath>
</defs>
</svg>
