<svg width="24" height="26" viewBox="0 0 24 26" fill="none" xmlns="http://www.w3.org/2000/svg">
<g filter="url(#filter0_b_4454_642)">
<path d="M3.59031 6.55994C-1.2043 9.34784 -1.19488 16.3012 3.60727 19.076L13.2121 24.626C18.0143 27.4008 24.0075 23.9159 24 18.3532L23.9849 7.22712C23.9774 1.6644 17.9747 -1.80409 13.1801 0.983808L3.59031 6.55994Z" fill="#A3E07E"/>
</g>
<path d="M9.71967 13.2803C9.42678 12.9874 9.42678 12.5126 9.71967 12.2197L14.4926 7.4467C14.7855 7.15381 15.2604 7.15381 15.5533 7.4467C15.8462 7.73959 15.8462 8.21447 15.5533 8.50736L11.3107 12.75L15.5533 16.9926C15.8462 17.2855 15.8462 17.7604 15.5533 18.0533C15.2604 18.3462 14.7855 18.3462 14.4926 18.0533L9.71967 13.2803ZM11.75 13.5H10.25V12H11.75V13.5Z" fill="white"/>
<defs>
<filter id="filter0_b_4454_642" x="-20" y="-20" width="64" height="65.6" filterUnits="userSpaceOnUse" color-interpolation-filters="sRGB">
<feFlood flood-opacity="0" result="BackgroundImageFix"/>
<feGaussianBlur in="BackgroundImageFix" stdDeviation="10"/>
<feComposite in2="SourceAlpha" operator="in" result="effect1_backgroundBlur_4454_642"/>
<feBlend mode="normal" in="SourceGraphic" in2="effect1_backgroundBlur_4454_642" result="shape"/>
</filter>
</defs>
</svg>
