<svg width="9" height="14" viewBox="0 0 9 14" fill="none" xmlns="http://www.w3.org/2000/svg">
<path d="M4.07339 2.06216C4.45948 2.08096 4.82354 2.24757 5.09014 2.52747C5.35674 2.80737 5.50545 3.17911 5.50545 3.56566C5.50545 3.9522 5.35674 4.32394 5.09014 4.60384C4.82354 4.88374 4.45948 5.05035 4.07339 5.06916C3.2465 5.06916 2.57049 4.39552 2.57049 3.56625C2.57049 2.73698 3.2465 2.06216 4.07339 2.06216ZM4.07339 7.19342C5.03582 7.19311 5.95877 6.81081 6.63952 6.1305C7.32028 5.45018 7.70319 4.52748 7.70413 3.56506C7.68692 2.61366 7.29689 1.70704 6.61798 1.0403C5.93907 0.373564 5.02554 0 4.07399 0C3.12243 0 2.2089 0.373564 1.52999 1.0403C0.851083 1.70704 0.461056 2.61366 0.443843 3.56506C0.444787 4.52728 0.827526 5.4498 1.50803 6.13008C2.18853 6.81036 3.11117 7.19279 4.07339 7.19342ZM5.54303 10.1553C6.28925 9.98343 7.00157 9.68831 7.65067 9.28205C7.76885 9.20755 7.8712 9.1105 7.95188 8.99644C8.03256 8.88239 8.08999 8.75356 8.12088 8.61731C8.15177 8.48106 8.15552 8.34007 8.13192 8.20237C8.10832 8.06467 8.05783 7.93297 7.98333 7.81478C7.90883 7.6966 7.81178 7.59424 7.69772 7.51357C7.58367 7.43289 7.45484 7.37546 7.31859 7.34457C7.18234 7.31368 7.04134 7.30993 6.90365 7.33353C6.76595 7.35713 6.63425 7.40762 6.51606 7.48212C5.78393 7.9409 4.93739 8.18422 4.07339 8.18422C3.20939 8.18422 2.36286 7.9409 1.63072 7.48212C1.51246 7.40751 1.38063 7.35698 1.2428 7.33343C1.10496 7.30989 0.963834 7.31379 0.82751 7.34492C0.691186 7.37605 0.562352 7.43378 0.448397 7.51482C0.334442 7.59586 0.237611 7.69861 0.163459 7.81716C0.0891063 7.93518 0.0387304 8.0667 0.0152087 8.2042C-0.00831297 8.34169 -0.00451951 8.48248 0.0263713 8.61851C0.0572622 8.75454 0.114645 8.88315 0.195245 8.997C0.275845 9.11085 0.378082 9.20771 0.496118 9.28205C1.14464 9.68858 1.85662 9.98374 2.60256 10.1553L0.57453 12.1845C0.424582 12.3328 0.322215 12.5223 0.280495 12.729C0.238776 12.9357 0.259597 13.1502 0.340301 13.345C0.421006 13.5398 0.557932 13.7061 0.733601 13.8228C0.90927 13.9394 1.11571 14.0011 1.32658 13.9999C1.46651 13.9999 1.60508 13.9723 1.73434 13.9187C1.8636 13.8651 1.981 13.7865 2.07981 13.6874L4.07339 11.6938L6.06935 13.6874C6.16793 13.7865 6.28512 13.8651 6.41418 13.9187C6.54324 13.9724 6.68163 14 6.82139 14C6.96116 14 7.09955 13.9724 7.22861 13.9187C7.35767 13.8651 7.47486 13.7865 7.57344 13.6874C7.67234 13.5888 7.7508 13.4717 7.80434 13.3428C7.85788 13.2138 7.88544 13.0756 7.88544 12.936C7.88544 12.7963 7.85788 12.6581 7.80434 12.5291C7.7508 12.4002 7.67234 12.2831 7.57344 12.1845L5.54303 10.1553Z" fill="white"/>
</svg>
