<svg width="18" height="12" viewBox="0 0 18 12" fill="none" xmlns="http://www.w3.org/2000/svg">
<path d="M16.7858 1.87771C16.5883 1.14347 16.0094 0.564674 15.2753 0.366965C13.9341 0 8.56928 0 8.56928 0C8.56928 0 3.20467 0 1.86349 0.353052C1.14347 0.550552 0.550447 1.14357 0.352947 1.87771C0 3.21879 0 6 0 6C0 6 0 8.79523 0.352947 10.1223C0.550656 10.8564 1.12935 11.4352 1.86359 11.6329C3.21879 12 8.56949 12 8.56949 12C8.56949 12 13.9341 12 15.2753 11.6469C16.0095 11.4493 16.5883 10.8705 16.786 10.1364C17.1389 8.79523 17.1389 6.01412 17.1389 6.01412C17.1389 6.01412 17.153 3.21879 16.7858 1.87771ZM6.86124 8.56938V3.43062L11.3223 6L6.86124 8.56938Z" fill="white"/>
</svg>
