<svg width="321" height="266" viewBox="0 0 321 266" fill="none" xmlns="http://www.w3.org/2000/svg">
<path d="M314.312 229.149L60.8147 272.6L6.68896 238.42L231.192 209.23L314.312 229.149Z" fill="#666666"/>
<path d="M61.33 271.57L6.17358 237.905V31.3816L61.33 47.5337V271.57Z" fill="#808080"/>
<path d="M60.2994 270.54H59.2687L7.20371 237.905L6.1731 31.3821C6.1731 31.3821 26.2268 40.1535 60.2994 48.5639V270.54Z" fill="white"/>
<path d="M59.2687 270.54L6.1731 237.905V31.8967C6.1731 31.8967 22.9128 40.2107 59.2687 49.5936V270.54Z" fill="url(#paint0_linear_1_2621)"/>
<path d="M61.3298 271.57L314.827 228.634V23.6552L61.3298 49.0789V271.57Z" fill="url(#paint1_linear_1_2621)"/>
<path d="M256.063 8.01868L6.17407 31.3816L61.3304 47.5337L314.827 22.11L256.063 8.01868Z" fill="url(#paint2_linear_1_2621)"/>
<path d="M314.827 23.6553L61.3298 49.5941V47.5337L314.827 22.11V23.6553Z" fill="url(#paint3_linear_1_2621)"/>
<path d="M60.2995 257.864H59.2687L57.7227 254.774V67.5386L59.2687 64.4481H60.2995V257.864Z" fill="url(#paint4_linear_1_2621)"/>
<path d="M60.2995 67.8395L57.7227 67.5387L59.2687 64.4482H60.2995V67.8395Z" fill="#808080"/>
<path d="M57.7227 254.774H60.2995V257.864H59.2064L57.7227 254.774Z" fill="white"/>
<defs>
<linearGradient id="paint0_linear_1_2621" x1="3.18123" y1="152.25" x2="62.7825" y2="150.168" gradientUnits="userSpaceOnUse">
<stop stop-color="#E6E6E6"/>
<stop offset="1" stop-color="#CFCFCF"/>
</linearGradient>
<linearGradient id="paint1_linear_1_2621" x1="280.345" y1="168.223" x2="226.339" y2="33.0745" gradientUnits="userSpaceOnUse">
<stop stop-color="#EAEAEB"/>
<stop offset="0.9947" stop-color="#FAFAFA"/>
<stop offset="1" stop-color="#FAFAFA"/>
</linearGradient>
<linearGradient id="paint2_linear_1_2621" x1="159.728" y1="17.9152" x2="161.423" y2="37.3018" gradientUnits="userSpaceOnUse">
<stop stop-color="#EDEDED"/>
<stop offset="1" stop-color="#E8E8E8"/>
</linearGradient>
<linearGradient id="paint3_linear_1_2621" x1="61.33" y1="35.8521" x2="314.827" y2="35.8521" gradientUnits="userSpaceOnUse">
<stop stop-color="white"/>
<stop offset="0.9637" stop-color="white"/>
<stop offset="1" stop-color="#F2F2F2"/>
</linearGradient>
<linearGradient id="paint4_linear_1_2621" x1="57.7228" y1="161.156" x2="60.2996" y2="161.156" gradientUnits="userSpaceOnUse">
<stop stop-color="white"/>
<stop offset="0.601" stop-color="#CFCFCF"/>
<stop offset="1" stop-color="#808080"/>
</linearGradient>
</defs>
</svg>
