<svg width="63" height="63" viewBox="0 0 63 63" fill="none" xmlns="http://www.w3.org/2000/svg">
<path d="M31.868 62.8999C14.7757 62.8999 0.868652 48.9932 0.868652 31.8999C0.868652 14.8066 14.7757 0.899902 31.868 0.899902C48.9616 0.899902 62.8686 14.8066 62.8686 31.8999C62.8686 48.9932 48.9616 62.8999 31.868 62.8999ZM31.868 2.04733C15.4065 2.04733 2.0148 15.4387 2.0148 31.8999C2.0148 48.3611 15.4065 61.7512 31.868 61.7512C48.3295 61.7512 61.7212 48.3611 61.7212 31.8999C61.7212 15.4387 48.3282 2.04733 31.868 2.04733Z" fill="#B01E65"/>
<path d="M27.2064 35.1857L27.021 34.2043C27.1646 34.1772 27.3342 34.1648 27.5162 34.1614L27.5366 35.1609C27.4134 35.1631 27.3003 35.1688 27.2064 35.1857Z" fill="#B01E65"/>
<path d="M27.0345 35.2468L26.1333 34.7991C26.2011 34.6543 26.3119 34.53 26.4725 34.4203L27.0345 35.2468Z" fill="#B01E65"/>
<path d="M29.5173 35.4685C29.281 35.4074 29.0594 35.3577 28.8468 35.3147C28.8457 35.3147 28.8423 35.3136 28.8423 35.3136L29.0447 34.3356C29.2753 34.3831 29.5128 34.4351 29.7672 34.5006L29.5173 35.4685Z" fill="#B01E65"/>
<path d="M27.0426 35.2435L26.5835 34.3548C26.7203 34.2847 26.8605 34.235 27.0132 34.2056L27.2065 35.1858C27.1466 35.1971 27.0957 35.2152 27.0426 35.2435Z" fill="#B01E65"/>
<path d="M28.69 35.2842C28.4899 35.2469 28.2988 35.2141 28.1235 35.1938L28.2389 34.201C28.4345 34.2248 28.6493 34.2599 28.8732 34.3006L28.69 35.2842Z" fill="#B01E65"/>
<path d="M28.1053 35.1914C27.9334 35.1722 27.7796 35.1643 27.6338 35.1609L27.6519 34.1614C27.826 34.1636 28.0114 34.1738 28.2184 34.1976L28.1053 35.1914Z" fill="#B01E65"/>
<path d="M29.5107 54.6828C28.3721 54.6828 27.2154 54.4408 26.1163 53.9287C24.1648 53.0196 22.6836 51.4061 21.9464 49.3823C21.2092 47.3584 21.3053 45.1672 22.2155 43.2123L26.1322 34.8024L26.1333 34.8002L27.039 35.2219C27.0356 35.6798 28.9905 37.4663 32.9276 39.3002C36.8691 41.1352 39.4968 41.4835 39.8643 41.1624L40.753 41.609L40.7519 41.6124L36.8363 50.0211C35.4705 52.954 32.5522 54.6828 29.5107 54.6828Z" fill="#FF49B0"/>
<path d="M29.5107 54.6828C28.3721 54.6828 27.2154 54.4408 26.1163 53.9287C24.1648 53.0196 22.6836 51.4061 21.9464 49.3823C21.2092 47.3584 21.3053 45.1672 22.2155 43.2123L26.1322 34.8024L26.1333 34.8002L27.039 35.2219C27.0356 35.6798 28.9905 37.4663 32.9276 39.3002C36.8691 41.1352 39.4968 41.4835 39.8643 41.1624L40.753 41.609L40.7519 41.6124L36.8363 50.0211C35.4705 52.954 32.5522 54.6828 29.5107 54.6828ZM26.5415 36.2904L23.1223 43.6329C22.324 45.347 22.2404 47.2657 22.886 49.0385C23.5305 50.8103 24.8285 52.2247 26.5381 53.0207C30.0715 54.667 34.2867 53.1315 35.9318 49.5982L39.3499 42.2535C38.8931 42.2523 38.339 42.1913 37.6753 42.0466C36.2111 41.7288 34.3748 41.0753 32.507 40.2047C30.6425 39.3352 28.9634 38.3527 27.7773 37.4369C27.2391 37.0219 26.8287 36.6409 26.5415 36.2904Z" fill="#B01E65"/>
<path d="M39.8294 41.1953C39.8294 41.1942 39.8294 41.1942 39.8294 41.193C39.817 41.1376 39.7955 41.0856 39.7627 41.0314L40.6299 40.5316C40.7102 40.6729 40.7679 40.8154 40.8029 40.968V40.9692C40.8029 40.9703 40.8029 40.9703 40.8029 40.9714L39.8294 41.1953Z" fill="#B01E65"/>
<path d="M39.7435 41.0007C39.6938 40.9205 39.6304 40.8345 39.5547 40.7441L40.3202 40.0996C40.4321 40.233 40.5259 40.3608 40.5994 40.4829L39.7435 41.0007Z" fill="#B01E65"/>
<path d="M39.4925 40.6694C39.3941 40.5575 39.2811 40.4411 39.1499 40.3189L39.8317 39.5874C39.9877 39.7333 40.1246 39.8746 40.2421 40.0091L39.4925 40.6694Z" fill="#B01E65"/>
<path d="M39.2911 42.2546C38.849 42.2546 38.312 42.1845 37.6743 42.0466C36.21 41.7289 34.3738 41.0754 32.5059 40.2048C30.6414 39.3353 28.9623 38.3527 27.7762 37.4369C26.355 36.3379 25.8179 35.4752 26.1322 34.7991C26.2001 34.6543 26.3109 34.53 26.4714 34.4203L26.563 34.3638C26.7191 34.2835 26.8593 34.2337 27.0108 34.2043L27.1114 34.1953C27.1623 34.1761 27.3319 34.1648 27.5128 34.1614L27.6395 34.6611L27.6485 34.1614C27.8226 34.1636 28.008 34.1738 28.215 34.1976C28.4298 34.2236 28.6446 34.2597 28.8685 34.3004L29.0358 34.3332C29.271 34.3818 29.5085 34.435 29.764 34.4994C30.0376 34.5718 30.2943 34.6464 30.5577 34.7267L30.7646 34.79C31.0383 34.876 31.3198 34.9687 31.6115 35.0727L31.2757 36.0134C30.9976 35.915 30.7285 35.8257 30.4639 35.742L30.2728 35.6844C30.0173 35.6064 29.773 35.5363 29.5424 35.4741C29.2778 35.4062 29.0551 35.3565 28.8402 35.3124L28.6808 35.2807C28.4875 35.2457 28.2964 35.2129 28.12 35.1925C27.9312 35.1699 27.7763 35.1631 27.6304 35.1597C27.411 35.162 27.298 35.1677 27.203 35.1846C27.1431 35.1959 27.0922 35.2129 27.0391 35.2412C27.0334 35.6776 28.9883 37.464 32.9254 39.298C36.8669 41.133 39.4947 41.4813 39.8621 41.1602C39.8146 41.1364 39.792 41.0855 39.7604 41.0301C39.6903 40.9182 39.6281 40.8323 39.5512 40.7429C39.3906 40.5564 39.2787 40.4388 39.1475 40.3178C38.9474 40.138 38.8072 40.0204 38.658 39.8995L38.5528 39.8158C38.3764 39.6779 38.1853 39.5354 37.9807 39.3918L38.1277 38.8864L37.8461 39.298C37.655 39.1679 37.4549 39.0356 37.2457 38.9022L37.395 38.4036L37.1281 38.8265C36.8884 38.675 36.6329 38.5223 36.3706 38.3708L36.8715 37.5059C37.1451 37.6664 37.4119 37.8236 37.6607 37.9807L37.7477 38.0361C38.0021 38.1978 38.2102 38.3369 38.4103 38.4737L38.5585 38.5766C38.7744 38.7292 38.9813 38.8807 39.1713 39.03L39.2617 39.1035C39.4494 39.2527 39.6032 39.3839 39.7423 39.5094L39.8282 39.5851C39.9842 39.731 40.121 39.8723 40.2386 40.0069L40.3054 40.0849C40.4275 40.2308 40.5213 40.3585 40.5959 40.4818C40.7079 40.6706 40.7655 40.8142 40.8006 40.9668L40.8187 41.0697C40.8436 41.2857 40.8221 41.4564 40.7508 41.6079C40.553 42.0409 40.0713 42.2546 39.2911 42.2546Z" fill="#B01E65"/>
<path d="M40.7533 41.609L39.8477 41.185L40.8234 41.0878C40.8291 41.1386 40.8325 41.1861 40.8325 41.2325C40.8336 41.3716 40.8065 41.4959 40.7533 41.609Z" fill="#B01E65"/>
<path d="M37.8494 39.3002C37.6583 39.1702 37.4582 39.0379 37.249 38.9045L37.7861 38.061C38.0055 38.2012 38.2146 38.3392 38.4148 38.4771L37.8494 39.3002Z" fill="#B01E65"/>
<path d="M31.2781 36.0133C31 35.915 30.7309 35.8256 30.4663 35.742L30.7648 34.7888C31.0407 34.8747 31.3222 34.9675 31.614 35.0715L31.2781 36.0133Z" fill="#B01E65"/>
<path d="M37.1317 38.8287C37.1317 38.8276 37.1317 38.8287 37.1317 38.8287C37.1295 38.8276 37.1295 38.8264 37.1295 38.8264C36.8875 38.6749 36.6342 38.5234 36.373 38.3719L36.8739 37.507C37.1464 37.6664 37.4133 37.8235 37.6609 37.9807H37.662C37.662 37.9807 37.662 37.9818 37.6631 37.9818L37.1317 38.8287Z" fill="#B01E65"/>
<path d="M38.556 39.817C38.3796 39.6791 38.1885 39.5366 37.9839 39.393L38.5583 38.5756C38.7776 38.7305 38.9846 38.882 39.1745 39.0324L38.556 39.817Z" fill="#B01E65"/>
<path d="M30.2669 35.6833C30.0182 35.6075 29.774 35.5374 29.5444 35.4752L29.7977 34.5096C30.0419 34.573 30.2975 34.6476 30.5598 34.7279L30.2669 35.6833Z" fill="#B01E65"/>
<path d="M39.0761 40.2533C38.9506 40.1391 38.8104 40.0227 38.6611 39.9006L39.2864 39.1227C39.4526 39.255 39.6064 39.385 39.7455 39.5116C39.7466 39.5128 39.7466 39.5128 39.7477 39.5139L39.0761 40.2533Z" fill="#B01E65"/>
<path d="M30.6152 35.2672C30.8843 35.352 31.1602 35.4425 31.4452 35.5442L30.6152 35.2672Z" fill="#FF49B0"/>
<path d="M30.4851 35.7386C30.7633 35.8268 31.0403 35.9195 31.315 36.0156C31.9109 36.2248 32.1664 35.2784 31.5751 35.0715C31.2992 34.9754 31.0233 34.8827 30.7452 34.7945C30.1437 34.6034 29.8859 35.5487 30.4851 35.7386Z" fill="#B01E65"/>
<path d="M36.6226 37.9399C36.8917 38.096 37.1517 38.2509 37.3982 38.4058L36.6226 37.9399Z" fill="#FF49B0"/>
<path d="M36.3761 38.3629C36.635 38.5144 36.894 38.6693 37.1506 38.8276C37.6877 39.1611 38.1795 38.3143 37.6459 37.9819C37.3892 37.8224 37.1314 37.6675 36.8702 37.516C36.3241 37.1994 35.8311 38.0452 36.3761 38.3629Z" fill="#B01E65"/>
<path d="M39.7605 24.1856L38.9814 23.5615C39.0549 23.4676 39.1217 23.3794 39.168 23.2958L40.0443 23.7741C39.9753 23.9018 39.8758 24.0431 39.7605 24.1856Z" fill="#B01E65"/>
<path d="M40.2227 23.219L39.23 23.1195L40.147 22.7091C40.2035 22.8244 40.2306 22.9511 40.2306 23.0947C40.2306 23.1342 40.2284 23.1761 40.2227 23.219Z" fill="#B01E65"/>
<path d="M38.07 25.7076L37.481 24.9014C37.6788 24.7567 37.8586 24.6165 38.0293 24.4774L38.6569 25.2564C38.4748 25.4034 38.2837 25.5538 38.07 25.7076Z" fill="#B01E65"/>
<path d="M40.0478 23.7695L39.1704 23.2935C39.1975 23.2415 39.2156 23.1918 39.2292 23.1318L40.2061 23.341C40.1745 23.4936 40.1224 23.6327 40.0478 23.7695Z" fill="#B01E65"/>
<path d="M38.7938 25.1444L38.1538 24.3767C38.3098 24.2467 38.4557 24.1189 38.5835 23.9968L39.2732 24.7193C39.1307 24.855 38.9668 24.9986 38.7938 25.1444Z" fill="#B01E65"/>
<path d="M39.2878 24.7047L38.5947 23.9844C38.7168 23.8657 38.822 23.7527 38.9158 23.6418L39.6768 24.2875C39.5637 24.4209 39.4382 24.56 39.2878 24.7047Z" fill="#B01E65"/>
<path d="M25.6019 29.6772L21.5936 21.3081C20.6631 19.3634 20.5432 17.1733 21.2601 15.1404C21.9746 13.1086 23.4411 11.477 25.3859 10.5465C29.3919 8.62663 34.2188 10.3283 36.141 14.3421L40.147 22.7067C40.147 22.709 40.147 22.709 40.1481 22.7101L39.247 23.142C38.8976 22.8492 36.2766 23.2234 32.3554 25.0992C28.4331 26.9761 26.494 28.7863 26.5109 29.2725L25.6019 29.6772Z" fill="#FF49B0"/>
<path d="M25.6019 29.6772L21.5936 21.3081C20.6631 19.3634 20.5432 17.1733 21.2601 15.1404C21.9746 13.1086 23.4411 11.477 25.3859 10.5465C29.3919 8.62663 34.2188 10.3283 36.141 14.3421L40.147 22.7067C40.147 22.709 40.147 22.709 40.1481 22.7101L39.247 23.142C38.8976 22.8492 36.2766 23.2234 32.3554 25.0992C28.4331 26.9761 26.494 28.7863 26.5109 29.2725L25.6019 29.6772ZM28.8526 10.7568C27.8327 10.7568 26.797 10.9795 25.8167 11.4488C24.1128 12.2651 22.8283 13.6942 22.2019 15.475C21.5744 17.2547 21.6795 19.1734 22.4948 20.8785L25.9931 28.1836C26.2758 27.8297 26.6839 27.4431 27.2176 27.0213C28.3947 26.0908 30.0669 25.089 31.9247 24.1992C33.7801 23.3116 35.6062 22.6389 37.0659 22.3053C37.7217 22.1561 38.2712 22.0803 38.7235 22.0803C38.728 22.0803 38.7336 22.0803 38.7381 22.0803L35.2387 14.7752C34.0255 12.2402 31.4893 10.7568 28.8526 10.7568Z" fill="#B01E65"/>
<path d="M26.5098 30.2641C26.3492 30.237 26.2033 30.1907 26.0643 30.1217C26.0643 30.1206 26.0631 30.1205 26.062 30.1205L26.5098 29.2262C26.5584 29.2499 26.6138 29.268 26.6782 29.2805C26.6805 29.2805 26.6816 29.2805 26.6816 29.2805L26.5098 30.2641Z" fill="#B01E65"/>
<path d="M27.0097 30.3003C26.8491 30.3003 26.701 30.2912 26.5698 30.2731L26.7112 29.2838C26.8061 29.2974 26.9147 29.3019 27.0334 29.3019L27.039 30.3014C27.03 30.3003 27.0198 30.3003 27.0097 30.3003Z" fill="#B01E65"/>
<path d="M27.162 30.2992L27.127 29.2996C27.2762 29.2951 27.4379 29.2804 27.6154 29.2578L27.75 30.2471C27.5351 30.2765 27.3418 30.2924 27.162 30.2992Z" fill="#B01E65"/>
<path d="M27.0071 30.3002C26.8488 30.3002 26.7007 30.2912 26.5696 30.2731C26.3446 30.2369 26.1998 30.1906 26.0607 30.1216L25.9612 30.0639C25.7916 29.9565 25.6729 29.831 25.6006 29.6795C25.2783 29.0045 25.8075 28.1361 27.2163 27.0213C28.3933 26.0908 30.0656 25.089 31.9234 24.1992C33.7788 23.3116 35.6049 22.6389 37.0646 22.3053C38.816 21.9085 39.8246 22.0385 40.1468 22.7124C40.218 22.8571 40.2429 23.0233 40.2214 23.22L40.2033 23.3387C40.1717 23.4937 40.1197 23.6339 40.045 23.7695L40.0021 23.8419C39.9331 23.9572 39.8506 24.0714 39.7578 24.1867L39.6764 24.2862C39.5611 24.4219 39.4356 24.5599 39.2852 24.7046C39.1269 24.855 38.9641 24.9986 38.79 25.1444L38.6543 25.2563C38.4723 25.4022 38.2789 25.5526 38.0675 25.7075C37.8391 25.8737 37.6186 26.0241 37.3891 26.1767L37.2138 26.2932C36.9662 26.4549 36.7163 26.612 36.4517 26.7703L35.9384 25.9133C36.1928 25.7606 36.4325 25.608 36.6643 25.4587L36.8396 25.3423C37.0521 25.2009 37.2602 25.0585 37.4535 24.9183C37.6751 24.7577 37.8549 24.6164 38.0268 24.4784L38.47 24.7611L38.15 24.3778C38.306 24.2478 38.4519 24.12 38.5797 23.9979C38.7142 23.8668 38.8194 23.7537 38.9132 23.644L38.9788 23.5638C39.0523 23.4699 39.119 23.3817 39.1654 23.2981L39.1801 23.2709C39.2027 23.2268 39.2151 23.1838 39.2264 23.1341C38.8963 22.8537 36.2731 23.2268 32.3541 25.1026C28.4318 26.9795 26.4927 28.7897 26.5096 29.2758C26.5605 29.2532 26.6137 29.2702 26.6792 29.2826C26.8047 29.2985 26.9042 29.3052 27.032 29.303C27.2751 29.2973 27.4368 29.2826 27.6143 29.26L27.7862 29.7383L27.7161 29.2431C27.8823 29.2193 28.0609 29.1876 28.2486 29.1481L28.4872 29.6083L28.3809 29.1198C28.5991 29.0723 28.8298 29.0135 29.0695 28.9468L29.1724 28.9163C29.4505 28.8371 29.6789 28.767 29.9153 28.6902L30.0453 28.6483C30.3178 28.5579 30.5971 28.4584 30.882 28.3521L31.2336 29.2871C30.9374 29.4002 30.6457 29.5031 30.3653 29.597L30.2511 29.6343C29.9786 29.7236 29.7389 29.7959 29.5048 29.8627L29.3352 29.9113C29.0774 29.9825 28.8298 30.0447 28.5935 30.0967V30.0978L28.4555 30.1261C28.2452 30.1702 28.0462 30.2064 27.8574 30.2335L27.7398 30.2516C27.534 30.2799 27.3407 30.2957 27.1609 30.3025L27.0354 30.3036C27.0263 30.3002 27.0162 30.3002 27.0071 30.3002Z" fill="#B01E65"/>
<path d="M25.9616 30.0628C25.7931 29.9554 25.6744 29.8299 25.6021 29.6784L26.5032 29.2454L25.9616 30.0628Z" fill="#B01E65"/>
<path d="M29.5062 29.8605L29.2314 28.8994C29.4531 28.8361 29.6815 28.766 29.9178 28.688L30.2276 29.6389C29.98 29.7203 29.7403 29.7926 29.5062 29.8605Z" fill="#B01E65"/>
<path d="M36.4552 26.7704L35.9419 25.9134C36.1963 25.7608 36.436 25.6081 36.6678 25.4589L37.2128 26.2967C36.9708 26.4538 36.7198 26.611 36.4552 26.7704Z" fill="#B01E65"/>
<path d="M30.3669 29.5948L30.0503 28.6462C30.3194 28.5569 30.5987 28.4574 30.8836 28.3511L31.2353 29.2861C30.939 29.3969 30.6473 29.501 30.3669 29.5948Z" fill="#B01E65"/>
<path d="M28.5949 30.0946L28.3823 29.1188C28.6005 29.0713 28.8312 29.0125 29.0709 28.9458L29.3378 29.908C29.0788 29.9792 28.8312 30.0425 28.5949 30.0946Z" fill="#B01E65"/>
<path d="M37.3939 26.1767L36.8398 25.3457C37.0558 25.201 37.265 25.0585 37.4583 24.9183L38.0474 25.7268C37.8428 25.8737 37.6223 26.0241 37.3939 26.1767Z" fill="#B01E65"/>
<path d="M27.8576 30.2303L27.7163 29.241C27.8825 29.2172 28.0612 29.1856 28.2489 29.146L28.4558 30.124C28.2455 30.167 28.0465 30.2032 27.8576 30.2303Z" fill="#B01E65"/>
<path d="M36.9405 25.8772C36.703 26.031 36.4577 26.1859 36.1987 26.343L36.9405 25.8772Z" fill="#FF49B0"/>
<path d="M36.6928 25.4543C36.4474 25.6126 36.1998 25.7675 35.9511 25.9202C35.4129 26.2469 35.9047 27.0938 36.4463 26.7659C36.6962 26.6144 36.9427 26.4595 37.1869 26.3012C37.7149 25.9575 37.2242 25.1095 36.6928 25.4543Z" fill="#B01E65"/>
<path d="M31.0589 28.8181C30.7683 28.9267 30.4823 29.0295 30.2075 29.1211L31.0589 28.8181Z" fill="#FF49B0"/>
<path d="M30.9287 28.3455C30.646 28.4495 30.3633 28.5513 30.0772 28.6485C29.4836 28.8498 29.7381 29.7961 30.3373 29.5926C30.6223 29.4965 30.906 29.3947 31.1887 29.2896C31.7755 29.0725 31.5223 28.1261 30.9287 28.3455Z" fill="#B01E65"/>
<path d="M40.0541 32.9686C40.964 32.9686 41.7015 32.231 41.7015 31.3212C41.7015 30.4114 40.964 29.6738 40.0541 29.6738C39.1443 29.6738 38.4067 30.4114 38.4067 31.3212C38.4067 32.231 39.1443 32.9686 40.0541 32.9686Z" fill="#FF49B0"/>
<path d="M40.0565 33.4672C39.1474 33.4672 38.3017 32.886 38.0088 31.9759C37.6481 30.8497 38.2689 29.6388 39.3973 29.2758C40.5257 28.9095 41.7356 29.5359 42.0985 30.6654C42.2738 31.2104 42.2251 31.7927 41.9639 32.3015C41.7028 32.8125 41.2573 33.1902 40.7112 33.3654C40.4929 33.4355 40.2725 33.4672 40.0565 33.4672ZM40.0542 30.1725C39.9366 30.1725 39.8191 30.1917 39.7015 30.2278C39.0999 30.4212 38.7675 31.0679 38.9609 31.6694C39.1542 32.2732 39.8021 32.6056 40.4047 32.4123C40.6965 32.3184 40.9339 32.1172 41.0741 31.8447C41.2132 31.5722 41.2392 31.2624 41.1465 30.9707C41.0515 30.6778 40.8502 30.4404 40.5766 30.2991C40.4138 30.2154 40.2351 30.1725 40.0542 30.1725Z" fill="#B01E65"/>
<path d="M27.145 40.1472C27.145 40.1472 23.9802 45.268 25.1267 48.2043L27.145 40.1472Z" fill="#FF49B0"/>
<path d="M26.7223 39.8996C25.2897 42.2435 23.735 45.5698 24.6543 48.3343C24.8522 48.929 25.7985 48.6746 25.5984 48.0754C24.7674 45.5744 26.2734 42.5114 27.5669 40.3937C27.8971 39.8544 27.0502 39.3625 26.7223 39.8996Z" fill="#B01E65"/>
<path d="M34.5512 30.767C35.4611 30.767 36.1986 30.0295 36.1986 29.1197C36.1986 28.2098 35.4611 27.4723 34.5512 27.4723C33.6414 27.4723 32.9038 28.2098 32.9038 29.1197C32.9038 30.0295 33.6414 30.767 34.5512 30.767Z" fill="#FF49B0"/>
<path d="M34.5559 31.268C34.3456 31.268 34.1364 31.2375 33.9317 31.1753C32.7988 30.8339 32.1543 29.6342 32.4958 28.5002C32.6608 27.9518 33.0306 27.4996 33.536 27.2282C34.0391 26.958 34.6203 26.8992 35.1698 27.0631C35.7193 27.2282 36.1716 27.5991 36.4418 28.1033C36.7132 28.6087 36.772 29.1887 36.6069 29.7394C36.4407 30.2889 36.071 30.7411 35.5644 31.0114C35.249 31.1821 34.903 31.268 34.5559 31.268ZM34.5502 27.9722C34.3637 27.9722 34.1793 28.0185 34.0086 28.109C33.7384 28.2548 33.5405 28.4957 33.4523 28.7896C33.3641 29.0836 33.3946 29.3945 33.5394 29.6625C33.6841 29.9327 33.9261 30.1306 34.2212 30.2188C34.5152 30.3081 34.8238 30.2776 35.0929 30.1317C35.3632 29.9859 35.561 29.745 35.6492 29.4511C35.7374 29.1571 35.708 28.8462 35.5622 28.5771C35.4174 28.3068 35.1755 28.109 34.8815 28.0208C34.773 27.988 34.6622 27.9722 34.5502 27.9722Z" fill="#B01E65"/>
<path d="M35.2929 36.3088C36.2028 36.3088 36.9403 35.5712 36.9403 34.6614C36.9403 33.7516 36.2028 33.014 35.2929 33.014C34.3831 33.014 33.6455 33.7516 33.6455 34.6614C33.6455 35.5712 34.3831 36.3088 35.2929 36.3088Z" fill="#FF49B0"/>
<path d="M35.2907 36.8083C35.0849 36.8083 34.878 36.7789 34.6722 36.7167C34.1239 36.5517 33.6716 36.1819 33.4002 35.6765C33.1289 35.1711 33.0701 34.5911 33.2363 34.0416C33.4014 33.4932 33.7711 33.0421 34.2765 32.7696C34.7808 32.4983 35.3619 32.4383 35.9103 32.6057C37.0433 32.9471 37.6878 34.1468 37.3463 35.2808C37.0682 36.2079 36.2134 36.8083 35.2907 36.8083ZM34.9606 35.7602C35.5643 35.9434 36.2088 35.5974 36.3909 34.9914C36.4791 34.6974 36.4485 34.3876 36.3038 34.1185C36.1591 33.8483 35.9171 33.6504 35.6231 33.5622C35.3303 33.4729 35.0194 33.5057 34.7503 33.6504C34.48 33.794 34.2822 34.0371 34.194 34.3311C34.1058 34.6239 34.1363 34.9337 34.281 35.2039C34.4269 35.4742 34.6666 35.672 34.9606 35.7602Z" fill="#B01E65"/>
</svg>
