<svg width="84" height="85" viewBox="0 0 84 85" fill="none" xmlns="http://www.w3.org/2000/svg">
<path d="M41.9991 84.0018C18.8417 84.0018 0 65.16 0 42.0009C0 18.8418 18.8417 0 41.9991 0C65.1583 0 84 18.8418 84 42.0009C84 65.16 65.1583 84.0018 41.9991 84.0018ZM41.9991 1.55462C19.6964 1.55462 1.55285 19.6982 1.55285 42.0009C1.55285 64.3036 19.6964 82.4454 41.9991 82.4454C64.3018 82.4454 82.4454 64.3036 82.4454 42.0009C82.4454 19.6982 64.3001 1.55462 41.9991 1.55462Z" fill="#E27B07"/>
<path d="M24.7671 60.003C23 68.0001 18.3083 62.0671 16.5 59.5001C14.6917 56.9332 11 50.7075 18.2189 50.7075" fill="#FDB96B"/>
<path d="M22.0809 64.6873C20.0431 64.6887 17.3989 62.9395 15.3584 60.043C12.706 56.2784 12.2222 52.207 14.2573 50.7728C15.36 49.9963 16.9907 50.1456 18.7302 51.1796L17.9997 52.4062C16.7843 51.6826 15.6915 51.5072 15.0796 51.9393C13.9158 52.7603 14.2225 55.9522 16.525 59.2207C18.829 62.4907 21.7294 63.8511 22.8948 63.0329C23.5318 62.5855 23.724 61.4483 23.4104 59.9888L24.807 59.6904C25.2502 61.7561 24.8531 63.4008 23.7169 64.201C23.2476 64.5312 22.6915 64.6873 22.0809 64.6873Z" fill="#E27B07"/>
<path d="M57.1559 45.0004C57.5341 44.5591 57.6662 44.1786 57.3994 43.9202C56.0612 42.6245 52.4778 44.2766 51.0691 44.9201C49.3384 45.7111 47.6001 46.5719 45.7475 47.0817C42.6978 47.9211 39.559 47.1266 36.6097 46.52C35.8305 46.3599 39.2506 48.2494 38.8223 48.8843C38.7 49.0656 38.6094 49.2787 38.6549 49.4803C38.6943 49.6544 38.829 49.7941 38.9706 49.9143C39.711 50.5419 40.738 50.8314 41.7593 50.9711C44.7801 51.3841 47.9422 50.4764 50.6758 49.2116C51.4399 48.8583 55.8239 46.5541 57.1559 45.0004Z" fill="#FDB96B"/>
<path d="M43.2854 51.786C42.7307 51.786 42.1898 51.7497 41.6616 51.6772C40.2873 51.4903 39.2544 51.0903 38.5087 50.4589C38.3136 50.293 38.046 50.0281 37.9581 49.6366C37.9122 49.4317 37.9023 49.125 38.0737 48.7584C37.7978 48.4448 37.0771 47.9137 36.7427 47.6684C36.0207 47.1359 35.5859 46.8154 35.8437 46.2341L36.0778 45.7101L37.5052 45.9776C40.1729 46.5366 42.9342 47.1151 45.5589 46.3931C47.099 45.9694 48.6002 45.2751 50.0526 44.602L50.7719 44.2703C53.487 43.034 56.4213 41.9774 57.8957 43.4074C58.1537 43.6568 58.6483 44.3567 57.6979 45.4647C56.2302 47.1763 51.5845 49.5779 50.9753 49.8594C48.2071 51.1406 45.6282 51.786 43.2854 51.786ZM39.0843 47.7523C39.5485 48.2541 39.7631 48.7642 39.4132 49.2827C39.9638 49.8206 40.7569 50.1134 41.8552 50.264C44.3446 50.5984 47.2062 50.0312 50.3756 48.5635C51.1897 48.1887 55.4088 45.9417 56.613 44.5369C56.6882 44.4492 56.737 44.3807 56.7704 44.3291C56.0247 43.8565 54.2239 44.2665 51.4056 45.5501L50.6515 45.8985C49.1475 46.5941 47.5907 47.3146 45.9375 47.7704C43.6283 48.4045 41.3325 48.1704 39.0843 47.7523Z" fill="#E27B07"/>
<path d="M66.1283 53.4267C66.2743 53.377 66.4171 53.321 66.5562 53.2572C66.8429 53.1257 67.097 52.8836 67.1586 52.5763C67.2272 52.2354 67.0198 51.9091 66.7809 51.6557C66.0389 50.868 64.0456 50.5544 61.5822 50.5832C59.3069 50.6098 57.0451 50.734 54.7652 50.7489C50.8826 50.7739 44.4111 49.5337 40.2698 47.876C38.977 47.3585 39.544 49.0077 40.0518 51.1823C40.2121 51.8688 40.7187 52.428 41.2882 52.8479C42.6472 53.8502 44.3779 54.199 46.0579 54.4245C48.9727 54.8155 51.9196 54.9149 54.8604 55.0137C56.1259 55.0563 57.4438 55.1561 58.7036 55.0813C59.8802 55.0114 60.895 54.427 62.0122 54.1398C63.3121 53.8057 64.8416 53.8647 66.1283 53.4267Z" fill="#FDB96B"/>
<path d="M57.7157 55.8212C57.0619 55.8212 56.4081 55.7933 55.7672 55.7654L54.8361 55.7277C51.9175 55.6287 48.9094 55.5284 45.9629 55.131C44.1969 54.8941 42.3571 54.5233 40.8643 53.4224C40.0559 52.8257 39.5346 52.1079 39.3561 51.3456L39.1707 50.572C38.7608 48.8952 38.5141 47.8818 39.1623 47.3201C39.5065 47.0246 39.9678 46.9857 40.5352 47.2142C44.4868 48.7949 50.8637 50.0604 54.761 50.0354C55.9567 50.0269 57.1485 49.9893 58.3389 49.9503C59.4164 49.9169 60.4938 49.8821 61.574 49.8695C64.5415 49.8402 66.4553 50.2708 67.2998 51.1671C67.8922 51.793 67.9312 52.3546 67.8588 52.7156C67.7556 53.2215 67.3793 53.6649 66.8524 53.9061C66.6963 53.9785 66.529 54.0427 66.3589 54.1012L66.3576 54.1025C65.5701 54.3701 64.7324 54.4649 63.9212 54.5583C63.3037 54.6281 62.721 54.695 62.1915 54.8316C61.8025 54.9319 61.4262 55.0699 61.0526 55.2079C60.3348 55.4712 59.5947 55.7432 58.746 55.7933C58.4042 55.8143 58.0601 55.8212 57.7157 55.8212ZM40.2106 48.6208C40.2677 49.046 40.4296 49.7093 40.5576 50.2333L40.7472 51.0209C40.8727 51.5617 41.341 52.0007 41.7117 52.274C42.9451 53.1842 44.5745 53.5047 46.1523 53.718C49.0293 54.1042 52.001 54.2044 54.8751 54.3007L55.8298 54.3397C56.7749 54.38 57.7533 54.4219 58.6607 54.3689C59.299 54.3313 59.9123 54.1069 60.5605 53.8686C60.98 53.7138 61.3997 53.5605 61.836 53.4491C62.4603 53.2888 63.121 53.2135 63.7593 53.1397C64.5287 53.052 65.2562 52.9696 65.8974 52.7508C66.0201 52.709 66.1399 52.6631 66.2542 52.6102C66.3865 52.5488 66.452 52.4666 66.4591 52.4345C66.4578 52.4345 66.4409 52.3355 66.2626 52.1475C66.0646 51.9357 65.1378 51.2485 61.5904 51.2972C60.52 51.3097 59.4523 51.3433 58.3848 51.3781C57.1819 51.4171 55.9776 51.4547 54.7692 51.4631C54.73 51.4631 54.6897 51.4631 54.6494 51.4631C50.6602 51.4627 44.2777 50.2041 40.2106 48.6208Z" fill="#E27B07"/>
<path d="M61.6515 58.2105C63.3201 58.4561 66.7146 58.1177 68.0615 57.8799C68.9458 57.7238 71.1255 57.2604 71.068 56.039C70.9918 54.4171 67.5027 54.0473 66.345 53.9938C64.04 53.8871 63.5284 53.9209 61.3119 53.8544C58.4369 53.7682 55.6102 53.838 52.7335 53.615C48.3951 53.2788 44.1345 52.5304 40.0208 51.1057C40.2864 51.3419 41.8932 52.2019 41.8006 52.556C41.7205 52.867 41.8877 53.1829 42.0629 53.452C43.5131 55.678 45.8864 57.2076 48.4309 58.0208C50.9751 58.8341 53.6923 58.9822 56.3664 58.8825C58.9082 58.7877 59.1295 57.8392 61.6515 58.2105Z" fill="#FDB96B"/>
<path d="M54.9587 59.6235C52.3327 59.6235 50.1625 59.3239 48.214 58.7008C45.2953 57.7684 42.8992 56.0427 41.4652 53.8406C41.2658 53.5352 41.0539 53.1423 41.0665 52.6907C40.8422 52.4956 40.3529 52.1833 40.1228 52.0371C39.8553 51.8657 39.6378 51.7193 39.547 51.6398L36.8723 49.2605L40.2551 50.4312C44.0115 51.7331 48.1121 52.5414 52.7899 52.9038C54.6423 53.0473 56.5199 53.0683 58.336 53.0878C59.3326 53.1002 60.3293 53.1115 61.3328 53.1407C62.2025 53.1671 62.8089 53.1784 63.3635 53.1882C64.2277 53.2021 64.9705 53.216 66.3782 53.2816C67.6174 53.3374 71.6721 53.7011 71.7809 56.0051C71.8407 57.2832 70.631 58.1503 68.1861 58.5822C66.735 58.8402 63.27 59.1717 61.5487 58.9166C60.2788 58.7286 59.6977 58.9069 58.959 59.1341C58.3194 59.3292 57.5945 59.5509 56.393 59.5956C55.8996 59.6138 55.4216 59.6235 54.9587 59.6235ZM42.5132 52.6251C42.5092 52.6613 42.5019 52.6976 42.4924 52.7352C42.4937 52.7434 42.5063 52.8258 42.6611 53.0614C43.9154 54.9891 46.0424 56.5084 48.6491 57.3405C50.7775 58.022 53.2097 58.2856 56.3403 58.1684C57.3551 58.1308 57.9586 57.9467 58.5426 57.7698C59.3816 57.512 60.1747 57.2708 61.7553 57.5036C63.3094 57.735 66.6058 57.413 67.9384 57.1773C69.8759 56.8345 70.3667 56.3047 70.3567 56.072C70.326 55.4308 68.4735 54.8049 66.3133 54.7061C64.925 54.6419 64.1918 54.6295 63.3388 54.6142C62.7785 54.6044 62.1681 54.5947 61.2913 54.5681C60.296 54.5374 59.308 54.5263 58.3211 54.5152C56.4813 54.4957 54.58 54.4733 52.679 54.3256C48.9805 54.0397 45.6283 53.4794 42.5132 52.6251Z" fill="#E27B07"/>
<path d="M23.5 59.8076C25.5 59.8076 28.6275 59.1515 30.5 59.8076C32.4023 60.474 35.5046 60.0501 37 61.3917C38.8375 63.04 46.8047 63.3218 49 64.5001C51.1977 65.6796 45.2359 60.2741 47.6945 60.6789C51.081 61.2363 54.5192 61.4462 57.9507 61.4748C59.6898 61.4892 61.4289 61.4557 63.1668 61.3917C64.1939 61.3539 66.3402 61.3164 66.3274 59.8076C66.3195 58.8949 65.5782 58.3993 64.7677 58.1805C62.5129 57.5715 59.9499 57.6554 57.6281 57.4782C55.0778 57.2833 52.5256 57.0641 50.0014 56.6469C48.3405 56.3723 46.7011 55.7963 45.4201 54.6838C44.9838 54.305 44.5946 53.8747 44.2571 53.407C42.7322 51.2936 41.8265 48.994 39.6747 47.386C37.7886 45.9764 35.3814 45.3299 33.0396 45.2765C28.0465 45.1628 21.6151 46.8782 18.2071 50.7159" fill="#FDB96B"/>
<path d="M58.7974 62.1923C58.5103 62.1923 58.2259 62.191 57.9444 62.1881C54.0709 62.1562 50.6796 61.8926 47.5783 61.3826C44.7906 60.9241 42.3307 60.1308 40.2664 59.0228C38.2077 57.9174 36.496 56.3715 34.84 54.8788L34.3091 54.3993C33.095 53.3108 31.4517 51.974 29.5115 51.2938C27.8013 50.6945 25.4486 50.5802 24.0325 51.6632L23.1654 50.5315C25.1281 49.0261 28.0647 49.2771 29.9826 49.9475C32.1626 50.71 33.9495 52.1595 35.2624 53.3373L35.7977 53.8182C37.4618 55.3222 39.0354 56.741 40.941 57.7655C42.8671 58.7982 45.1782 59.5413 47.8096 59.9749C50.8371 60.4725 54.1557 60.7303 57.9569 60.7609C59.5681 60.7762 61.263 60.747 63.1405 60.6787C64.4075 60.6342 65.6201 60.4989 65.613 59.8145C65.6102 59.3714 65.2631 59.0536 64.5816 58.8695C63.0289 58.45 61.2726 58.3734 59.5734 58.2994C58.8962 58.2689 58.2256 58.2396 57.5733 58.1907C55.1103 58.0011 52.4872 57.7823 49.885 57.3515C47.8512 57.0156 46.1928 56.2993 44.9521 55.2232C44.4784 54.809 44.0488 54.3393 43.6782 53.8237C43.2014 53.1657 42.7846 52.4884 42.3722 51.8193C41.4772 50.3656 40.6325 48.9927 39.2472 47.9571C37.622 46.743 35.4099 46.0448 33.0222 45.9904C28.3278 45.8593 22.0625 47.4483 18.7411 51.1895L17.6733 50.2417C21.3 46.1591 28.0142 44.4713 33.0556 44.5634C35.7375 44.6247 38.2395 45.4234 40.1016 46.8144C41.706 48.0131 42.6619 49.5672 43.5874 51.0712C43.9819 51.711 44.3805 52.3591 44.835 52.9891C45.1431 53.4157 45.497 53.8046 45.8888 54.1461C46.9257 55.0464 48.3489 55.6515 50.1176 55.9442C52.6628 56.3637 55.2512 56.5812 57.682 56.7666C58.319 56.8153 58.9741 56.8445 59.6361 56.874C61.4119 56.9506 63.249 57.0314 64.9537 57.4928C66.2708 57.8482 67.0318 58.6901 67.0402 59.8023C67.0597 61.9683 64.4058 62.0631 63.2712 62.1036C61.6351 62.1629 60.1772 62.1923 58.7974 62.1923Z" fill="#E27B07"/>
<path d="M49.1632 66.0001C48.7395 66.0001 48.3714 65.7842 48.1625 65.6628C46.6543 64.782 44.8996 64.485 43.0416 64.1687C41.9278 63.9805 40.7781 63.7854 39.6699 63.4523C38.52 63.1081 37.4217 62.616 36.3595 62.1407C34.8429 61.4619 33.4115 60.8221 31.8658 60.5837C30.0384 60.3036 28.8006 60.1377 26.9413 60.2799C25.8304 60.362 24.725 60.7286 23.6546 61.0841L23.2059 59.7293C24.3042 59.3641 25.5489 58.9517 26.8368 58.8554C28.844 58.7118 30.1569 58.8762 32.0831 59.1732C33.8185 59.4394 35.4061 60.1501 36.942 60.8374C37.9623 61.2947 39.0188 61.7671 40.0794 62.0862C41.1026 62.3928 42.2093 62.581 43.2797 62.7622C45.1822 63.0855 47.1489 63.4186 48.8828 64.4306C48.8968 64.4388 48.9189 64.4514 48.9442 64.4653C48.7057 62.96 47.1544 62.022 46.4965 61.686C45.8274 61.3474 45.1209 61.0936 44.3708 60.8247C43.678 60.5767 42.9615 60.3202 42.2716 59.9871L42.8933 58.7019C43.515 59.0016 44.1644 59.2343 44.8516 59.4811C45.6099 59.7528 46.3946 60.0345 47.1432 60.415C48.9606 61.339 50.1344 62.7496 50.3601 64.2857C50.4687 65.0216 50.2179 65.6154 49.6895 65.8774C49.5102 65.9653 49.3318 66.0001 49.1632 66.0001Z" fill="#E27B07"/>
<path d="M23.9407 51.6834C25.6129 50.5155 27.7101 50.6663 29.5664 51.2749C30.3975 51.5475 30.7535 50.2386 29.9268 49.9674C27.7522 49.2544 25.2036 49.1527 23.2564 50.5126C22.5462 51.0087 23.2231 52.1846 23.9407 51.6834Z" fill="#E27B07"/>
<path d="M24.4248 59.4177C21.6214 60.9702 16.3638 53.2734 18.6982 51.1871C19.3503 50.6044 18.3886 49.6481 17.7394 50.2283C14.1739 53.4148 20.8887 62.9256 25.1092 60.5884C25.8726 60.1657 25.1896 58.9942 24.4248 59.4177Z" fill="#E27B07"/>
<path d="M41.326 14.8498C41.1894 14.6688 40.9287 14.669 40.7921 14.8499C39.5118 16.5468 34.3748 23.7791 34.329 30.6359C34.3167 32.4992 34.5054 34.7407 35.6491 36.2416C36.7153 37.6407 38.3342 38.5946 40.0716 38.8008C42.0564 39.0364 44.1575 38.3192 45.59 36.8496C47.1661 35.2328 47.5395 32.8046 47.5726 30.6364C47.5733 30.5829 47.5739 30.5294 47.5743 30.4761C47.62 23.6279 42.5913 16.5273 41.326 14.8498Z" fill="#FDB96B"/>
<path d="M40.8391 39.559C40.5547 39.559 40.2704 39.5438 39.9873 39.5088C38.068 39.2816 36.2799 38.2488 35.081 36.6737C33.7416 34.9161 33.6036 32.3835 33.6148 30.6314C33.6622 23.6552 38.6842 16.4601 40.2216 14.421C40.4223 14.1548 40.7275 14.0015 41.0579 14C41.0579 14 41.0579 14 41.0593 14C41.3882 14 41.692 14.1519 41.8942 14.4168L41.8956 14.4197C43.4065 16.424 48.3351 23.5048 48.2877 30.4808L48.2864 30.648C48.239 33.6949 47.5239 35.8875 46.1009 37.3468C44.7224 38.7631 42.8016 39.559 40.8391 39.559ZM41.0595 15.6896C39.5583 17.7566 35.0841 24.4387 35.0422 30.6398C35.0256 33.0596 35.4103 34.7504 36.2158 35.8097C37.1834 37.0781 38.6188 37.9102 40.1549 38.0927C41.9516 38.2991 43.8277 37.6369 45.0779 36.3519C46.2362 35.1643 46.8187 33.2924 46.8592 30.626L47.5742 30.477L46.8606 30.4728C46.9022 24.2868 42.5356 17.7287 41.0595 15.6896Z" fill="#E27B07"/>
<path d="M36.8757 30.6545C36.5376 33.1152 37.6757 35.5063 40.1375 36.269C40.9729 36.5278 41.3303 35.2195 40.498 34.9617C39.3039 34.5915 38.555 33.742 38.284 32.5333C38.2041 32.1772 38.1724 31.8147 38.1726 31.4503C38.1727 31.3312 38.2316 30.6635 38.1833 31.0151C38.3004 30.1618 36.9942 29.7926 36.8757 30.6545Z" fill="#E27B07"/>
</svg>
