<svg width="234" height="204" viewBox="0 0 234 204" fill="none" xmlns="http://www.w3.org/2000/svg">
<path d="M229.124 166.951L44.3321 198.609L4.87598 173.706L168.532 152.439L229.124 166.951Z" fill="#666666"/>
<path d="M44.7079 197.858L4.50049 173.331V22.8637L44.7079 34.6317V197.858Z" fill="#808080"/>
<path d="M43.9565 197.108H43.2052L5.25129 173.331L4.5 22.8641C4.5 22.8641 19.1186 29.2547 43.9565 35.3823V197.108Z" fill="white"/>
<path d="M43.2052 197.108L4.5 173.331V23.239C4.5 23.239 16.7028 29.2964 43.2052 36.1325V197.108Z" fill="url(#paint0_linear_1_1731)"/>
<path d="M44.7075 197.858L229.5 166.576V17.2345L44.7075 35.7575V197.858Z" fill="url(#paint1_linear_1_1731)"/>
<path d="M186.663 5.84219L4.50098 22.8637L44.7084 34.6317L229.501 16.1087L186.663 5.84219Z" fill="url(#paint2_linear_1_1731)"/>
<path d="M229.5 17.2345L44.7075 36.1328V34.6317L229.5 16.1087V17.2345Z" fill="url(#paint3_linear_1_1731)"/>
<path d="M43.9565 187.873H43.2052L42.0781 185.621V49.2067L43.2052 46.9551H43.9565V187.873Z" fill="url(#paint4_linear_1_1731)"/>
<path d="M43.9565 49.4259L42.0781 49.2067L43.2052 46.9551H43.9565V49.4259Z" fill="#808080"/>
<path d="M42.0781 185.621H43.9565V187.873H43.1597L42.0781 185.621Z" fill="white"/>
<defs>
<linearGradient id="paint0_linear_1_1731" x1="2.31901" y1="110.925" x2="45.7666" y2="109.406" gradientUnits="userSpaceOnUse">
<stop stop-color="#E6E6E6"/>
<stop offset="1" stop-color="#CFCFCF"/>
</linearGradient>
<linearGradient id="paint1_linear_1_1731" x1="204.363" y1="122.563" x2="165.032" y2="24.0822" gradientUnits="userSpaceOnUse">
<stop stop-color="#EAEAEB"/>
<stop offset="0.9947" stop-color="#FAFAFA"/>
<stop offset="1" stop-color="#FAFAFA"/>
</linearGradient>
<linearGradient id="paint2_linear_1_1731" x1="116.437" y1="13.0525" x2="117.672" y2="27.1772" gradientUnits="userSpaceOnUse">
<stop stop-color="#EDEDED"/>
<stop offset="1" stop-color="#E8E8E8"/>
</linearGradient>
<linearGradient id="paint3_linear_1_1731" x1="44.7076" y1="26.1208" x2="229.5" y2="26.1208" gradientUnits="userSpaceOnUse">
<stop stop-color="white"/>
<stop offset="0.9637" stop-color="white"/>
<stop offset="1" stop-color="#F2F2F2"/>
</linearGradient>
<linearGradient id="paint4_linear_1_1731" x1="42.0782" y1="117.414" x2="43.9567" y2="117.414" gradientUnits="userSpaceOnUse">
<stop stop-color="white"/>
<stop offset="0.601" stop-color="#CFCFCF"/>
<stop offset="1" stop-color="#808080"/>
</linearGradient>
</defs>
</svg>
