<svg width="62" height="63" viewBox="0 0 62 63" fill="none" xmlns="http://www.w3.org/2000/svg">
<path d="M30.9993 62.1887C13.907 62.1887 0 48.282 0 31.1887C0 14.0954 13.907 0.188721 30.9993 0.188721C48.093 0.188721 62 14.0954 62 31.1887C62 48.282 48.093 62.1887 30.9993 62.1887ZM30.9993 1.33615C14.5378 1.33615 1.14615 14.7276 1.14615 31.1887C1.14615 47.6499 14.5378 61.04 30.9993 61.04C47.4609 61.04 60.8526 47.6499 60.8526 31.1887C60.8526 14.7276 47.4596 1.33615 30.9993 1.33615Z" fill="#E27B07"/>
<path d="M18.2807 44.4756C16.9764 50.3781 13.5135 45.999 12.1788 44.1044C10.8441 42.2098 8.11929 37.6147 13.4475 37.6147" fill="#FF9F31"/>
<path d="M16.2978 47.933C14.7937 47.934 12.842 46.6429 11.336 44.5051C9.37825 41.7265 9.02109 38.7216 10.5232 37.663C11.3371 37.0899 12.5407 37.2 13.8246 37.9633L13.2855 38.8685C12.3884 38.3345 11.5818 38.205 11.1302 38.5239C10.2711 39.1299 10.4975 41.4858 12.197 43.8982C13.8975 46.3118 16.0384 47.3158 16.8985 46.7119C17.3687 46.3817 17.5106 45.5423 17.2791 44.4651L18.3099 44.2449C18.637 45.7695 18.3439 46.9835 17.5053 47.574C17.1589 47.8178 16.7484 47.933 16.2978 47.933Z" fill="#E27B07"/>
<path d="M42.1867 33.4025C42.4658 33.0769 42.5633 32.796 42.3664 32.6053C41.3787 31.649 38.7337 32.8684 37.694 33.3433C36.4166 33.9271 35.1336 34.5624 33.7662 34.9388C31.5152 35.5583 29.1985 34.9719 27.0216 34.5242C26.4465 34.406 28.9708 35.8006 28.6547 36.2692C28.5645 36.403 28.4976 36.5603 28.5312 36.7091C28.5602 36.8376 28.6597 36.9407 28.7642 37.0294C29.3106 37.4927 30.0687 37.7063 30.8225 37.8094C33.0522 38.1143 35.3861 37.4443 37.4037 36.5108C37.9677 36.25 41.2035 34.5493 42.1867 33.4025Z" fill="#FF9F31"/>
<path d="M31.9488 38.4108C31.5393 38.4108 31.1402 38.384 30.7503 38.3305C29.7359 38.1926 28.9735 37.8974 28.4231 37.4313C28.2791 37.3089 28.0816 37.1134 28.0168 36.8244C27.9829 36.6732 27.9756 36.4468 28.1021 36.1762C27.8984 35.9448 27.3665 35.5528 27.1196 35.3717C26.5867 34.9787 26.2658 34.7422 26.4561 34.3131L26.6289 33.9263L27.6825 34.1238C29.6515 34.5364 31.6896 34.9633 33.6268 34.4304C34.7636 34.1177 35.8716 33.6053 36.9436 33.1085L37.4746 32.8636C39.4785 31.9511 41.6443 31.1713 42.7326 32.2268C42.923 32.4108 43.288 32.9274 42.5866 33.7452C41.5033 35.0085 38.0743 36.7811 37.6246 36.9888C35.5815 37.9344 33.678 38.4108 31.9488 38.4108ZM28.848 35.4336C29.1906 35.804 29.349 36.1805 29.0908 36.5631C29.4971 36.9602 30.0825 37.1763 30.8932 37.2874C32.7306 37.5343 34.8427 37.1156 37.182 36.0324C37.7829 35.7558 40.897 34.0973 41.7858 33.0604C41.8414 32.9956 41.8773 32.9451 41.902 32.9071C41.3516 32.5582 40.0225 32.8608 37.9423 33.8082L37.3857 34.0654C36.2756 34.5788 35.1265 35.1106 33.9063 35.447C32.2019 35.915 30.5074 35.7422 28.848 35.4336Z" fill="#E27B07"/>
<path d="M48.8086 39.6218C48.9163 39.5851 49.0217 39.5438 49.1244 39.4966C49.336 39.3996 49.5236 39.2209 49.569 38.9941C49.6196 38.7424 49.4666 38.5017 49.2903 38.3146C48.7425 37.7332 47.2713 37.5017 45.4531 37.523C43.7737 37.5426 42.1043 37.6343 40.4215 37.6453C37.5558 37.6638 32.7792 36.7484 29.7225 35.5249C28.7683 35.1429 29.1868 36.3602 29.5616 37.9652C29.68 38.4719 30.0539 38.8846 30.4742 39.1945C31.4773 39.9343 32.7547 40.1918 33.9947 40.3582C36.1461 40.6468 38.3212 40.7201 40.4918 40.7931C41.4258 40.8245 42.3986 40.8981 43.3284 40.843C44.1969 40.7914 44.9459 40.36 45.7705 40.148C46.73 39.9015 47.8588 39.945 48.8086 39.6218Z" fill="#FF9F31"/>
<path d="M42.5994 41.3891C42.1169 41.3891 41.6343 41.3685 41.1612 41.3479L40.474 41.3201C38.3198 41.247 36.0995 41.173 33.9247 40.8797C32.6212 40.7048 31.2633 40.4312 30.1615 39.6186C29.5648 39.1782 29.18 38.6484 29.0483 38.0857L28.9115 37.5148C28.6089 36.2772 28.4268 35.5292 28.9053 35.1146C29.1593 34.8965 29.4998 34.8678 29.9186 35.0365C32.8352 36.2031 37.542 37.1372 40.4185 37.1187C41.3011 37.1125 42.1808 37.0847 43.0594 37.0559C43.8547 37.0312 44.6499 37.0056 45.4472 36.9963C47.6375 36.9747 49.0501 37.2925 49.6734 37.954C50.1107 38.416 50.1394 38.8305 50.086 39.097C50.0098 39.4703 49.7321 39.7976 49.3432 39.9756C49.2279 40.029 49.1045 40.0764 48.979 40.1196L48.978 40.1206C48.3967 40.3181 47.7784 40.388 47.1796 40.457C46.7239 40.5085 46.2938 40.5579 45.903 40.6587C45.6159 40.7328 45.3382 40.8346 45.0624 40.9364C44.5326 41.1308 43.9863 41.3315 43.3598 41.3685C43.1076 41.384 42.8536 41.3891 42.5994 41.3891ZM29.679 36.0746C29.7211 36.3885 29.8406 36.8781 29.9351 37.2648L30.075 37.8461C30.1677 38.2453 30.5133 38.5693 30.7869 38.771C31.6973 39.4428 32.9 39.6794 34.0645 39.8368C36.188 40.1219 38.3814 40.1958 40.5028 40.2669L41.2075 40.2956C41.905 40.3254 42.6272 40.3563 43.2969 40.3172C43.7681 40.2894 44.2207 40.1238 44.6992 39.9479C45.0088 39.8337 45.3185 39.7206 45.6406 39.6383C46.1014 39.52 46.589 39.4644 47.0602 39.41C47.6281 39.3452 48.1651 39.2844 48.6383 39.1229C48.7289 39.092 48.8173 39.0582 48.9017 39.0191C48.9993 38.9738 49.0477 38.9132 49.0529 38.8895C49.0519 38.8895 49.0395 38.8164 48.9079 38.6776C48.7617 38.5213 48.0776 38.0141 45.4593 38.0501C44.6693 38.0592 43.8812 38.0841 43.0933 38.1097C42.2054 38.1385 41.3165 38.1663 40.4246 38.1725C40.3957 38.1725 40.3659 38.1725 40.3362 38.1725C37.3918 38.1722 32.6809 37.2432 29.679 36.0746Z" fill="#E27B07"/>
<path d="M45.5046 43.1527C46.7362 43.334 49.2416 43.0842 50.2358 42.9087C50.8885 42.7935 52.4974 42.4514 52.4549 41.55C52.3986 40.3529 49.8234 40.0799 48.9688 40.0404C47.2676 39.9617 46.89 39.9867 45.254 39.9376C43.1319 39.874 41.0456 39.9254 38.9223 39.7608C35.7201 39.5127 32.5754 38.9604 29.5391 37.9088C29.7351 38.0832 30.9211 38.7179 30.8527 38.9793C30.7936 39.2088 30.917 39.4419 31.0464 39.6405C32.1167 41.2835 33.8685 42.4125 35.7465 43.0127C37.6244 43.613 39.6299 43.7223 41.6037 43.6487C43.4798 43.5787 43.6431 42.8787 45.5046 43.1527Z" fill="#FF9F31"/>
<path d="M40.5649 44.1956C38.6266 44.1956 37.0248 43.9744 35.5866 43.5146C33.4324 42.8264 31.6638 41.5527 30.6053 39.9273C30.4582 39.7019 30.3018 39.4119 30.3111 39.0786C30.1455 38.9346 29.7844 38.7041 29.6146 38.5962C29.4171 38.4697 29.2566 38.3617 29.1895 38.303L27.2153 36.5469L29.7122 37.411C32.4848 38.3718 35.5114 38.9685 38.964 39.2359C40.3313 39.3418 41.7172 39.3574 43.0576 39.3717C43.7932 39.3809 44.5288 39.3892 45.2695 39.4108C45.9115 39.4303 46.359 39.4386 46.7684 39.4458C47.4062 39.4561 47.9545 39.4664 48.9935 39.5148C49.9082 39.5559 52.9009 39.8244 52.9812 41.5249C53.0254 42.4683 52.1325 43.1082 50.3279 43.427C49.2569 43.6174 46.6994 43.8622 45.4289 43.6739C44.4916 43.5351 44.0627 43.6667 43.5175 43.8344C43.0454 43.9784 42.5103 44.142 41.6235 44.175C41.2593 44.1884 40.9065 44.1956 40.5649 44.1956ZM31.3789 39.0302C31.3759 39.0569 31.3706 39.0837 31.3635 39.1115C31.3645 39.1176 31.3738 39.1783 31.4881 39.3523C32.4138 40.7751 33.9838 41.8964 35.9078 42.5106C37.4787 43.0136 39.2739 43.2081 41.5846 43.1216C42.3336 43.0938 42.779 42.958 43.2101 42.8274C43.8293 42.6371 44.4147 42.4591 45.5814 42.6309C46.7285 42.8017 49.1615 42.564 50.1451 42.3901C51.5752 42.1371 51.9374 41.7461 51.9301 41.5743C51.9073 41.101 50.5401 40.6391 48.9456 40.5662C47.921 40.5188 47.3797 40.5096 46.7502 40.4983C46.3366 40.4911 45.8861 40.4839 45.2389 40.4643C44.5043 40.4416 43.775 40.4334 43.0466 40.4253C41.6887 40.4109 40.2853 40.3944 38.8822 40.2853C36.1524 40.0743 33.6781 39.6608 31.3789 39.0302Z" fill="#E27B07"/>
<path d="M17.3451 44.3315C18.8213 44.3315 21.1297 43.8473 22.5118 44.3315C23.9159 44.8234 26.2057 44.5105 27.3094 45.5007C28.6657 46.7173 34.5463 46.9253 36.1666 47.795C37.7887 48.6656 33.3883 44.6758 35.203 44.9746C37.7025 45.386 40.2403 45.5409 42.7731 45.5621C44.0567 45.5727 45.3403 45.548 46.623 45.5007C47.3811 45.4728 48.9653 45.4452 48.9558 44.3315C48.95 43.6579 48.4029 43.2921 47.8047 43.1306C46.1404 42.6811 44.2486 42.743 42.535 42.6123C40.6526 42.4684 38.7688 42.3066 36.9057 41.9987C35.6798 41.796 34.4698 41.3708 33.5243 40.5498C33.2023 40.2702 32.9149 39.9526 32.6658 39.6074C31.5403 38.0475 30.8719 36.3502 29.2836 35.1634C27.8915 34.123 26.1148 33.6458 24.3863 33.6064C20.7009 33.5225 15.9539 34.7886 13.4385 37.6211" fill="#FF9F31"/>
<path d="M43.3979 46.0916C43.186 46.0916 42.9761 46.0906 42.7683 46.0885C39.9093 46.0649 37.4062 45.8704 35.1172 45.4939C33.0596 45.1555 31.2439 44.57 29.7202 43.7522C28.2008 42.9364 26.9373 41.7954 25.7151 40.6936L25.3232 40.3397C24.4271 39.5363 23.2142 38.5496 21.7822 38.0476C20.5198 37.6053 18.7833 37.5209 17.7381 38.3203L17.0981 37.485C18.5467 36.3739 20.7142 36.5591 22.1299 37.0539C23.7389 37.6167 25.0578 38.6866 26.0268 39.5559L26.4219 39.9108C27.6502 41.0209 28.8117 42.068 30.2181 42.8242C31.6399 43.5865 33.3456 44.1349 35.2879 44.4549C37.5225 44.8222 39.9719 45.0125 42.7775 45.0351C43.9667 45.0464 45.2178 45.0248 46.6035 44.9744C47.5387 44.9416 48.4337 44.8417 48.4285 44.3366C48.4264 44.0095 48.1702 43.7749 47.6672 43.6391C46.5211 43.3295 45.2248 43.2729 43.9707 43.2183C43.4708 43.1958 42.9758 43.1742 42.4944 43.1381C40.6765 42.9982 38.7403 42.8366 36.8197 42.5187C35.3186 42.2707 34.0945 41.7421 33.1788 40.9478C32.8291 40.6421 32.512 40.2954 32.2385 39.9149C31.8866 39.4292 31.5789 38.9293 31.2745 38.4355C30.614 37.3625 29.9905 36.3492 28.968 35.5848C27.7684 34.6887 26.1357 34.1735 24.3734 34.1333C20.9085 34.0365 16.2841 35.2094 13.8325 37.9706L13.0444 37.2711C15.7213 34.2578 20.677 33.012 24.398 33.08C26.3775 33.1253 28.2242 33.7148 29.5986 34.7415C30.7828 35.6262 31.4884 36.7732 32.1715 37.8833C32.4626 38.3555 32.7569 38.8339 33.0923 39.2989C33.3197 39.6137 33.5809 39.9008 33.8701 40.1528C34.6355 40.8173 35.6859 41.2639 36.9914 41.48C38.87 41.7896 40.7804 41.9501 42.5747 42.087C43.0448 42.1229 43.5283 42.1445 44.017 42.1662C45.3277 42.2228 46.6836 42.2824 47.9418 42.6229C48.914 42.8853 49.4757 43.5066 49.4819 44.3276C49.4963 45.9263 47.5374 45.9962 46.7 46.0261C45.4924 46.0699 44.4163 46.0916 43.3979 46.0916Z" fill="#E27B07"/>
<path d="M36.2873 48.902C35.9746 48.902 35.703 48.7427 35.5488 48.6531C34.4356 48.003 33.1404 47.7838 31.769 47.5503C30.947 47.4114 30.0984 47.2674 29.2804 47.0215C28.4317 46.7675 27.621 46.4043 26.837 46.0535C25.7176 45.5525 24.6611 45.0802 23.5202 44.9043C22.1714 44.6975 21.2578 44.5751 19.8855 44.68C19.0655 44.7407 18.2497 45.0112 17.4596 45.2736L17.1284 44.2737C17.9391 44.0041 18.8578 43.6997 19.8083 43.6286C21.2898 43.5227 22.2589 43.644 23.6806 43.8632C24.9615 44.0597 26.1333 44.5843 27.267 45.0915C28.0201 45.429 28.7998 45.7777 29.5827 46.0133C30.3379 46.2395 31.1547 46.3785 31.9448 46.5122C33.349 46.7508 34.8006 46.9967 36.0804 47.7436C36.0907 47.7496 36.1071 47.7589 36.1257 47.7692C35.9497 46.6582 34.8047 45.9659 34.319 45.7179C33.8252 45.468 33.3037 45.2807 32.7501 45.0822C32.2388 44.8991 31.7099 44.7098 31.2007 44.464L31.6596 43.5154C32.1184 43.7366 32.5977 43.9084 33.105 44.0905C33.6647 44.291 34.2439 44.4989 34.7964 44.7798C36.1378 45.4618 37.0042 46.5029 37.1708 47.6367C37.2509 48.1798 37.0658 48.6181 36.6758 48.8115C36.5435 48.8764 36.4118 48.902 36.2873 48.902Z" fill="#E27B07"/>
<path d="M17.6706 38.3351C18.9049 37.4731 20.4528 37.5844 21.8229 38.0336C22.4364 38.2348 22.6991 37.2687 22.0889 37.0685C20.4839 36.5423 18.6027 36.4672 17.1655 37.471C16.6414 37.8371 17.141 38.7051 17.6706 38.3351Z" fill="#E27B07"/>
<path d="M18.0275 44.0435C15.9584 45.1895 12.0778 39.5086 13.8008 37.9687C14.2821 37.5386 13.5723 36.8328 13.0931 37.261C10.4614 39.6129 15.4176 46.6327 18.5327 44.9076C19.0962 44.5956 18.5921 43.731 18.0275 44.0435Z" fill="#E27B07"/>
<path d="M30.5028 11.1491C30.4019 11.0155 30.2095 11.0156 30.1087 11.1492C29.1637 12.4016 25.3721 17.7396 25.3383 22.8005C25.3293 24.1757 25.4685 25.8301 26.3127 26.938C27.0997 27.9706 28.2945 28.6746 29.5769 28.8268C31.0419 29.0007 32.5927 28.4714 33.65 27.3867C34.8133 26.1934 35.0889 24.4011 35.1133 22.8009C35.1139 22.7614 35.1143 22.7219 35.1146 22.6826C35.1483 17.6281 31.4367 12.3872 30.5028 11.1491Z" fill="#FF9F31"/>
<path d="M30.1432 29.3865C29.9333 29.3865 29.7234 29.3752 29.5145 29.3494C28.0979 29.1817 26.778 28.4194 25.8932 27.2568C24.9045 25.9596 24.8027 24.0903 24.811 22.7972C24.846 17.6481 28.5526 12.3376 29.6874 10.8326C29.8355 10.6361 30.0608 10.523 30.3047 10.5219C30.3047 10.5219 30.3047 10.5219 30.3057 10.5219C30.5484 10.5219 30.7727 10.634 30.9219 10.8295L30.9229 10.8316C32.0381 12.311 35.676 17.5371 35.641 22.686L35.64 22.8094C35.605 25.0582 35.0772 26.6765 34.0269 27.7536C33.0094 28.799 31.5917 29.3865 30.1432 29.3865ZM30.3058 11.7689C29.1978 13.2945 25.8954 18.2265 25.8645 22.8034C25.8523 24.5894 26.1362 25.8373 26.7308 26.6191C27.4449 27.5553 28.5044 28.1694 29.6382 28.3042C30.9643 28.4565 32.349 27.9677 33.2718 27.0193C34.1267 26.1428 34.5567 24.7612 34.5866 22.7932L35.1143 22.6832L34.5876 22.6801C34.6183 18.1143 31.3953 13.2739 30.3058 11.7689Z" fill="#E27B07"/>
<path d="M27.2178 22.8142C26.9683 24.6304 27.8083 26.3952 29.6254 26.9582C30.242 27.1492 30.5057 26.1835 29.8914 25.9932C29.0101 25.72 28.4573 25.093 28.2573 24.2009C28.1983 23.9381 28.1749 23.6705 28.1751 23.4015C28.1752 23.3136 28.2186 22.8208 28.1829 23.0803C28.2694 22.4505 27.3053 22.178 27.2178 22.8142Z" fill="#E27B07"/>
</svg>
