<svg width="14" height="13" viewBox="0 0 14 13" fill="none" xmlns="http://www.w3.org/2000/svg">
<path d="M13.5248 1.60435C12.6633 1.92661 12.5448 1.88229 12.9677 1.40188C13.2815 1.06046 13.6554 0.441089 13.6554 0.260191C13.6554 0.230229 13.5032 0.284146 13.3319 0.379991C13.1498 0.486613 12.7448 0.645942 12.4405 0.741786L11.8954 0.923882L11.3994 0.570468C11.1251 0.379991 10.7417 0.164347 10.5404 0.0996517C10.0229 -0.0500971 9.23452 -0.0273281 8.76852 0.142779C7.50458 0.621987 6.70433 1.86072 6.79658 3.21563L6.82533 3.73803L6.31968 3.67454C4.47828 3.42887 2.87053 2.59755 1.50594 1.19942L0.835034 0.505772L0.667312 1.01971C0.301908 2.16022 0.534324 3.3666 1.2927 4.17762C1.69763 4.62576 1.60778 4.69036 0.90932 4.42328C0.667312 4.33813 0.454055 4.27476 0.433697 4.30461C0.363007 4.38009 0.608611 5.35053 0.8003 5.73383C1.06267 6.267 1.59939 6.79051 2.18405 7.10078L2.68003 7.34522L2.09298 7.35721C1.52631 7.35721 1.50954 7.36798 1.56824 7.59076C1.77072 8.28445 2.56861 9.01998 3.46002 9.34101L4.08532 9.56625L3.53783 9.90771C2.72915 10.3977 1.7779 10.6769 0.827852 10.696C0.371387 10.7092 0 10.7511 0 10.781C0 10.8889 1.23279 11.4867 1.95282 11.7202C4.10685 12.4139 6.66591 12.1144 8.58757 10.9307C9.95464 10.0887 11.3156 8.41255 11.9553 6.79051C12.2991 5.92554 12.643 4.34657 12.643 3.58829C12.643 3.0983 12.673 3.0348 13.2397 2.4478C13.5715 2.10631 13.8877 1.73253 13.9489 1.62472C14.0507 1.42465 14.0423 1.42465 13.5248 1.60435Z" fill="white"/>
</svg>
