<svg width="16" height="9" viewBox="0 0 16 9" fill="none" xmlns="http://www.w3.org/2000/svg">
<path d="M15.9153 7.94571C15.9003 7.91071 15.8824 7.87695 15.8617 7.84478C15.5833 7.36227 15.0521 6.77143 14.2693 6.06981L14.254 6.05258L14.245 6.04643L14.2361 6.03904H14.2272C13.9907 5.83009 13.7657 5.60946 13.5529 5.37804C13.3805 5.16633 13.341 4.94723 13.4355 4.72689C13.5031 4.56072 13.7534 4.21238 14.1863 3.6757C14.4136 3.39259 14.5937 3.16487 14.7277 2.99378C15.6893 1.76164 16.1043 0.973861 15.9779 0.630439L15.9293 0.55166C15.8961 0.502424 15.8093 0.459343 15.6701 0.421185C15.4963 0.377481 15.3148 0.369928 15.1376 0.399029L12.737 0.416261C12.6986 0.40149 12.6425 0.403952 12.571 0.421185L12.4624 0.444572L12.4203 0.465497L12.3884 0.490116C12.3528 0.512982 12.3213 0.541249 12.2951 0.573818C12.2618 0.617048 12.2343 0.664203 12.2134 0.71414C11.9645 1.33747 11.6665 1.94155 11.3221 2.52111C11.1178 2.85469 10.9275 3.14149 10.7564 3.38521C10.5827 3.62769 10.4397 3.80741 10.3222 3.92311C10.2048 4.03882 10.1 4.13237 10.0068 4.2013C9.91106 4.27146 9.83827 4.29977 9.78847 4.28869L9.648 4.25792C9.56984 4.20838 9.5054 4.1412 9.46029 4.0622C9.40827 3.96392 9.3762 3.85697 9.3658 3.74709C9.33176 3.51184 9.32363 3.27377 9.34154 3.03686C9.34664 2.87192 9.3492 2.75868 9.3492 2.69959C9.3492 2.49649 9.35431 2.27493 9.36197 2.03737L9.38367 1.47115C9.39006 1.33082 9.39261 1.18435 9.39261 1.03048C9.39464 0.9076 9.38481 0.784801 9.36324 0.663674C9.34438 0.575455 9.31525 0.489569 9.27641 0.407645C9.24116 0.328232 9.18142 0.261193 9.1053 0.215623C9.01881 0.16482 8.92438 0.127827 8.82565 0.106073C8.45494 0.0340346 8.07753 -0.0010259 7.69937 0.00144601C6.66759 -0.0108631 6.00358 0.055606 5.7086 0.193468C5.58864 0.254571 5.48131 0.33634 5.39191 0.434725C5.29231 0.552892 5.27826 0.615668 5.34977 0.627977C5.68306 0.675982 5.9193 0.790457 6.05848 0.9714L6.11084 1.06864C6.14787 1.13757 6.18746 1.26066 6.22577 1.43791C6.26535 1.61516 6.28961 1.81088 6.30111 2.02506C6.32792 2.41525 6.32792 2.75006 6.30111 3.02824C6.28049 3.2455 6.25409 3.46221 6.22194 3.67816C6.20314 3.80885 6.16576 3.93643 6.11084 4.05728C6.05849 4.15329 6.02784 4.21361 6.00868 4.23453C5.99823 4.25039 5.98428 4.26384 5.96782 4.27392C5.89602 4.30028 5.81991 4.31404 5.74308 4.31454C5.66391 4.31454 5.56941 4.27638 5.45959 4.2013C5.33205 4.11131 5.2159 4.0072 5.11354 3.89111C4.96266 3.71954 4.82724 3.53588 4.70874 3.34212C4.53878 3.07112 4.3828 2.79218 4.24138 2.50634L4.10857 2.2737C4.02557 2.12353 3.9132 1.90443 3.76763 1.61886C3.62206 1.33329 3.49564 1.0551 3.38326 0.787995C3.34587 0.684545 3.27631 0.594717 3.18406 0.530736L3.14192 0.504886C3.04249 0.445 2.93188 0.40444 2.8163 0.385489L0.534378 0.40149C0.299419 0.40149 0.142354 0.451958 0.0593515 0.554123L0.0274276 0.602128C0.00669584 0.641694 -0.00256875 0.685922 0.000611626 0.730142C0.000611626 0.787995 0.0172121 0.860618 0.0504129 0.946781C0.383698 1.70256 0.746353 2.43002 1.13965 3.13287C1.53168 3.83203 1.87135 4.39824 2.15994 4.8266C2.44853 5.25372 2.74223 5.66115 3.04359 6.03904C3.3424 6.42062 3.54161 6.66434 3.63993 6.7702C3.71276 6.85312 3.78902 6.9332 3.86851 7.01023L4.07537 7.20348C4.20945 7.33149 4.40483 7.48536 4.66533 7.66507C4.922 7.84478 5.20803 8.0208 5.52216 8.19559C5.83757 8.37161 6.2015 8.5107 6.61907 8.62148C7.03536 8.73226 7.44143 8.77534 7.83473 8.75442H8.79244C8.95772 8.74981 9.11545 8.68672 9.23555 8.57717L9.26875 8.53778C9.33159 8.42392 9.36241 8.29618 9.35814 8.16728C9.35081 7.95871 9.36924 7.75004 9.41304 7.54567C9.45646 7.3598 9.50115 7.22071 9.55606 7.12716C9.60204 7.03992 9.66194 6.96017 9.73356 6.89083C9.77619 6.8461 9.82421 6.80643 9.87658 6.77266C9.89687 6.76104 9.91881 6.75233 9.9417 6.74681C10.0745 6.7025 10.2341 6.74435 10.4142 6.87113C10.5942 6.99792 10.7615 7.15301 10.9211 7.33765C11.0795 7.52228 11.2697 7.72908 11.4919 7.96049C11.7141 8.19067 11.9082 8.36176 12.0755 8.475L12.2428 8.57102C12.3513 8.63502 12.4969 8.69287 12.6757 8.74827C12.8255 8.79932 12.9863 8.81287 13.143 8.78765L15.2743 8.75565C15.4447 8.76472 15.6146 8.73078 15.7672 8.65718C15.8847 8.58702 15.9536 8.51685 15.9753 8.43315C15.9984 8.34444 16.0001 8.25182 15.9804 8.16235C15.9647 8.08859 15.9429 8.01615 15.9153 7.94571Z" fill="white"/>
</svg>
