<svg width="404" height="276" viewBox="0 0 404 276" fill="none" xmlns="http://www.w3.org/2000/svg">
<path d="M395.582 288.891L76.5393 343.671L8.41843 300.58L290.97 263.779L395.582 288.891Z" fill="#666666"/>
<path d="M77.1877 342.372L7.76974 299.931V39.5632L77.1877 59.9264V342.372Z" fill="#808080"/>
<path d="M75.8908 341.073H74.5937L9.06632 299.931L7.76923 39.5638C7.76923 39.5638 33.0081 50.6221 75.8908 61.2252V341.073Z" fill="white"/>
<path d="M74.5937 341.073L7.76923 299.931V40.2125C7.76923 40.2125 28.8373 50.6942 74.5937 62.5233V341.073Z" fill="url(#paint0_linear_1_1195)"/>
<path d="M77.1877 342.372L396.231 288.242V29.8224L77.1877 61.8745V342.372Z" fill="url(#paint1_linear_1_1195)"/>
<path d="M322.273 10.1093L7.77023 39.5632L77.1882 59.9264L396.231 27.8743L322.273 10.1093Z" fill="url(#paint2_linear_1_1195)"/>
<path d="M396.231 29.8225L77.1877 62.5239V59.9264L396.231 27.8743V29.8225Z" fill="url(#paint3_linear_1_1195)"/>
<path d="M75.8911 325.093H74.5938L72.648 321.197V85.147L74.5938 81.2507H75.8911V325.093Z" fill="url(#paint4_linear_1_1195)"/>
<path d="M75.8911 85.5262L72.648 85.147L74.5938 81.2507H75.8911V85.5262Z" fill="#808080"/>
<defs>
<linearGradient id="paint0_linear_1_1195" x1="4.00376" y1="191.944" x2="79.0163" y2="189.328" gradientUnits="userSpaceOnUse">
<stop stop-color="#E6E6E6"/>
<stop offset="1" stop-color="#CFCFCF"/>
</linearGradient>
<linearGradient id="paint1_linear_1_1195" x1="352.833" y1="212.082" x2="284.663" y2="41.7776" gradientUnits="userSpaceOnUse">
<stop stop-color="#EAEAEB"/>
<stop offset="0.9947" stop-color="#FAFAFA"/>
<stop offset="1" stop-color="#FAFAFA"/>
</linearGradient>
<linearGradient id="paint2_linear_1_1195" x1="201.028" y1="22.586" x2="203.169" y2="47.0263" gradientUnits="userSpaceOnUse">
<stop stop-color="#EDEDED"/>
<stop offset="1" stop-color="#E8E8E8"/>
</linearGradient>
<linearGradient id="paint3_linear_1_1195" x1="77.1879" y1="45.1992" x2="396.231" y2="45.1992" gradientUnits="userSpaceOnUse">
<stop stop-color="white"/>
<stop offset="0.9637" stop-color="white"/>
<stop offset="1" stop-color="#F2F2F2"/>
</linearGradient>
<linearGradient id="paint4_linear_1_1195" x1="72.6482" y1="203.172" x2="75.8913" y2="203.172" gradientUnits="userSpaceOnUse">
<stop stop-color="white"/>
<stop offset="0.601" stop-color="#CFCFCF"/>
<stop offset="1" stop-color="#808080"/>
</linearGradient>
</defs>
</svg>
