<svg width="276" height="229" viewBox="0 0 276 229" fill="none" xmlns="http://www.w3.org/2000/svg">
<path d="M270.249 197.232L52.2892 234.631L5.75122 205.212L198.781 180.087L270.249 197.232Z" fill="#666666"/>
<path d="M52.7323 233.744L5.30811 204.769V27.0106L52.7323 40.9129V233.744Z" fill="#808080"/>
<path d="M51.8461 232.858H50.9599L6.19375 204.769L5.30762 27.011C5.30762 27.011 22.55 34.5608 51.8461 41.7997V232.858Z" fill="white"/>
<path d="M50.9599 232.857L5.30762 204.769V27.4539C5.30762 27.4539 19.7007 34.6099 50.9599 42.6859V232.857Z" fill="url(#paint0_linear_1_2334)"/>
<path d="M52.7322 233.744L270.692 196.788V20.3604L52.7322 42.2429V233.744Z" fill="url(#paint1_linear_1_2334)"/>
<path d="M220.167 6.90179L5.30859 27.0106L52.7328 40.9129L270.693 19.0304L220.167 6.90179Z" fill="url(#paint2_linear_1_2334)"/>
<path d="M270.692 20.3604L52.7322 42.6863V40.9129L270.692 19.0303V20.3604Z" fill="url(#paint3_linear_1_2334)"/>
<path d="M51.8462 221.948H50.96L49.6306 219.288V58.1315L50.96 55.4714H51.8462V221.948Z" fill="url(#paint4_linear_1_2334)"/>
<path d="M51.8462 58.3904L49.6306 58.1315L50.96 55.4714H51.8462V58.3904Z" fill="#808080"/>
<path d="M49.6306 219.288H51.8462V221.948H50.9063L49.6306 219.288Z" fill="white"/>
<defs>
<linearGradient id="paint0_linear_1_2334" x1="2.73517" y1="131.044" x2="53.9813" y2="129.255" gradientUnits="userSpaceOnUse">
<stop stop-color="#E6E6E6"/>
<stop offset="1" stop-color="#CFCFCF"/>
</linearGradient>
<linearGradient id="paint1_linear_1_2334" x1="241.044" y1="144.792" x2="194.525" y2="28.5013" gradientUnits="userSpaceOnUse">
<stop stop-color="#EAEAEB"/>
<stop offset="0.9947" stop-color="#FAFAFA"/>
<stop offset="1" stop-color="#FAFAFA"/>
</linearGradient>
<linearGradient id="paint2_linear_1_2334" x1="137.336" y1="15.4199" x2="138.797" y2="32.106" gradientUnits="userSpaceOnUse">
<stop stop-color="#EDEDED"/>
<stop offset="1" stop-color="#E8E8E8"/>
</linearGradient>
<linearGradient id="paint3_linear_1_2334" x1="52.7323" y1="30.8584" x2="270.692" y2="30.8584" gradientUnits="userSpaceOnUse">
<stop stop-color="white"/>
<stop offset="0.9637" stop-color="white"/>
<stop offset="1" stop-color="#F2F2F2"/>
</linearGradient>
<linearGradient id="paint4_linear_1_2334" x1="49.6307" y1="138.71" x2="51.8463" y2="138.71" gradientUnits="userSpaceOnUse">
<stop stop-color="white"/>
<stop offset="0.601" stop-color="#CFCFCF"/>
<stop offset="1" stop-color="#808080"/>
</linearGradient>
</defs>
</svg>
