<svg width="84" height="85" viewBox="0 0 84 85" fill="none" xmlns="http://www.w3.org/2000/svg">
<path d="M41.9991 84.0018C18.8417 84.0018 0 65.16 0 42.0009C0 18.8418 18.8417 0 41.9991 0C65.1583 0 84 18.8418 84 42.0009C84 65.16 65.1583 84.0018 41.9991 84.0018ZM41.9991 1.55462C19.6964 1.55462 1.55285 19.6982 1.55285 42.0009C1.55285 64.3036 19.6964 82.4454 41.9991 82.4454C64.3018 82.4454 82.4454 64.3036 82.4454 42.0009C82.4454 19.6982 64.3001 1.55462 41.9991 1.55462Z" fill="#B01E65"/>
<path d="M35.6832 46.4528L35.4319 45.1231C35.6265 45.0864 35.8563 45.0695 36.1029 45.0649L36.1305 46.4191C35.9635 46.4222 35.8103 46.4298 35.6832 46.4528Z" fill="#B01E65"/>
<path d="M35.4503 46.5356L34.2294 45.929C34.3213 45.7329 34.4714 45.5644 34.6889 45.4158L35.4503 46.5356Z" fill="#B01E65"/>
<path d="M38.8143 46.836C38.4941 46.7533 38.1938 46.6859 37.9058 46.6276C37.9043 46.6276 37.8997 46.6261 37.8997 46.6261L38.1739 45.301C38.4864 45.3654 38.8081 45.4358 39.1528 45.5247L38.8143 46.836Z" fill="#B01E65"/>
<path d="M35.461 46.531L34.8391 45.3269C35.0244 45.232 35.2144 45.1646 35.4212 45.1248L35.6831 46.4529C35.6019 46.4682 35.533 46.4927 35.461 46.531Z" fill="#B01E65"/>
<path d="M37.693 46.5862C37.4219 46.5357 37.163 46.4912 36.9255 46.4637L37.0818 45.1187C37.3468 45.1508 37.6379 45.1983 37.9412 45.2535L37.693 46.5862Z" fill="#B01E65"/>
<path d="M36.9011 46.4605C36.6682 46.4344 36.4599 46.4237 36.2623 46.4191L36.2868 45.0649C36.5227 45.068 36.7739 45.0818 37.0543 45.114L36.9011 46.4605Z" fill="#B01E65"/>
<path d="M38.8051 72.8688C37.2625 72.8688 35.6953 72.5409 34.2063 71.847C31.5623 70.6154 29.5555 68.4293 28.5567 65.6872C27.5579 62.9451 27.6881 59.9763 28.9213 57.3277L34.2278 45.9335L34.2293 45.9304L35.4563 46.5018C35.4518 47.1222 38.1004 49.5426 43.4344 52.0273C48.7746 54.5136 52.3348 54.9854 52.8326 54.5504L54.0367 55.1555L54.0352 55.1601L48.7302 66.5528C46.8797 70.5265 42.9259 72.8688 38.8051 72.8688Z" fill="#FFB6DF"/>
<path d="M38.8051 72.8688C37.2625 72.8688 35.6953 72.5409 34.2063 71.847C31.5623 70.6154 29.5555 68.4293 28.5567 65.6872C27.5579 62.9451 27.6881 59.9763 28.9213 57.3277L34.2278 45.9335L34.2293 45.9304L35.4563 46.5018C35.4518 47.1222 38.1004 49.5426 43.4344 52.0273C48.7746 54.5136 52.3348 54.9854 52.8326 54.5504L54.0367 55.1555L54.0352 55.1601L48.7302 66.5528C46.8797 70.5265 42.9259 72.8688 38.8051 72.8688ZM34.7823 47.9494L30.1499 57.8976C29.0683 60.2199 28.955 62.8195 29.8297 65.2215C30.7029 67.622 32.4615 69.5384 34.7777 70.6169C39.5649 72.8473 45.2758 70.767 47.5047 65.9798L52.1356 56.0287C51.5167 56.0271 50.7661 55.9444 49.8669 55.7483C47.8831 55.3179 45.3953 54.4324 42.8646 53.2529C40.3385 52.0748 38.0636 50.7436 36.4567 49.5028C35.7275 48.9406 35.1714 48.4243 34.7823 47.9494Z" fill="#B01E65"/>
<path d="M52.7851 54.595C52.7851 54.5935 52.7851 54.5935 52.7851 54.5919C52.7682 54.5169 52.7391 54.4464 52.6947 54.3729L53.8697 53.6958C53.9784 53.8873 54.0566 54.0803 54.104 54.2871V54.2886C54.104 54.2902 54.104 54.2902 54.104 54.2917L52.7851 54.595Z" fill="#B01E65"/>
<path d="M52.6687 54.3313C52.6013 54.2225 52.5155 54.1061 52.4129 53.9835L53.45 53.1104C53.6017 53.2911 53.7288 53.4642 53.8284 53.6296L52.6687 54.3313Z" fill="#B01E65"/>
<path d="M52.3286 53.8825C52.1953 53.7309 52.0421 53.5731 51.8644 53.4076L52.7882 52.4165C52.9996 52.6141 53.1849 52.8056 53.3443 52.9879L52.3286 53.8825Z" fill="#B01E65"/>
<path d="M52.0561 56.0302C51.4571 56.0302 50.7294 55.9353 49.8655 55.7484C47.8817 55.3179 45.3939 54.4325 42.8632 53.2529C40.3371 52.0749 38.0622 50.7437 36.4552 49.5028C34.5296 48.0138 33.802 46.845 34.2279 45.9289C34.3198 45.7328 34.4699 45.5643 34.6874 45.4157L34.8115 45.3392C35.0229 45.2304 35.2129 45.163 35.4182 45.1231L35.5545 45.1109C35.6234 45.0849 35.8532 45.0695 36.0983 45.0649L36.2699 45.742L36.2821 45.0649C36.5181 45.068 36.7693 45.0818 37.0496 45.114C37.3407 45.1492 37.6317 45.1982 37.9351 45.2534L38.1618 45.2978C38.4804 45.3636 38.8021 45.4357 39.1483 45.523C39.519 45.621 39.8668 45.7221 40.2237 45.8309L40.504 45.9167C40.8748 46.0331 41.2562 46.1587 41.6514 46.2996L41.1964 47.5742C40.8196 47.4409 40.455 47.3199 40.0966 47.2065L39.8377 47.1284C39.4915 47.0227 39.1606 46.9277 38.8481 46.8435C38.4896 46.7515 38.1878 46.6841 37.8968 46.6244L37.6808 46.5815C37.4188 46.534 37.1599 46.4896 36.9209 46.462C36.6651 46.4314 36.4552 46.4222 36.2576 46.4176C35.9604 46.4207 35.8073 46.4283 35.6786 46.4513C35.5974 46.4666 35.5285 46.4896 35.4565 46.5279C35.4488 47.1192 38.0974 49.5396 43.4315 52.0243C48.7717 54.5106 52.3318 54.9824 52.8297 54.5474C52.7653 54.5152 52.7347 54.4463 52.6918 54.3712C52.5968 54.2195 52.5126 54.1031 52.4084 53.9821C52.1909 53.7293 52.0392 53.57 51.8615 53.4061C51.5904 53.1625 51.4004 53.0032 51.1982 52.8393L51.0557 52.7259C50.8167 52.539 50.5579 52.346 50.2806 52.1515L50.4797 51.4667L50.0983 52.0243C49.8394 51.8482 49.5682 51.6689 49.2848 51.4882L49.4871 50.8126L49.1255 51.3855C48.8008 51.1802 48.4546 50.9734 48.0992 50.7682L48.7778 49.5963C49.1485 49.8138 49.51 50.0267 49.8471 50.2397L49.965 50.3147C50.3097 50.5338 50.5916 50.7222 50.8627 50.9076L51.0634 51.047C51.356 51.2538 51.6363 51.4591 51.8937 51.6613L52.0162 51.7609C52.2705 51.9631 52.4789 52.1408 52.6673 52.3108L52.7837 52.4134C52.9951 52.611 53.1805 52.8025 53.3398 52.9848L53.4302 53.0905C53.5956 53.2881 53.7228 53.4612 53.8239 53.6282C53.9755 53.884 54.0537 54.0786 54.1011 54.2854L54.1256 54.4248C54.1593 54.7174 54.1302 54.9487 54.0337 55.154C53.7656 55.7407 53.1131 56.0302 52.0561 56.0302Z" fill="#B01E65"/>
<path d="M54.0368 55.1554L52.8098 54.581L54.1318 54.4492C54.1394 54.5182 54.144 54.5825 54.144 54.6453C54.1456 54.8337 54.1088 55.0022 54.0368 55.1554Z" fill="#B01E65"/>
<path d="M50.1029 52.0274C49.844 51.8512 49.5728 51.6719 49.2894 51.4912L50.0171 50.3484C50.3143 50.5383 50.5977 50.7253 50.8688 50.9121L50.1029 52.0274Z" fill="#B01E65"/>
<path d="M41.1996 47.5741C40.8227 47.4408 40.4581 47.3198 40.0997 47.2064L40.5041 45.915C40.8779 46.0315 41.2593 46.1571 41.6545 46.298L41.1996 47.5741Z" fill="#B01E65"/>
<path d="M49.1302 51.3887C49.1302 51.3871 49.1302 51.3887 49.1302 51.3887C49.1271 51.3871 49.1271 51.3856 49.1271 51.3856C48.7993 51.1803 48.4562 50.9751 48.1023 50.7698L48.7809 49.5979C49.1501 49.8139 49.5116 50.0268 49.8471 50.2398H49.8487C49.8487 50.2398 49.8486 50.2413 49.8502 50.2413L49.1302 51.3887Z" fill="#B01E65"/>
<path d="M51.0603 52.7277C50.8213 52.5408 50.5624 52.3478 50.2851 52.1532L51.0633 51.0457C51.3605 51.2555 51.6408 51.4608 51.8982 51.6645L51.0603 52.7277Z" fill="#B01E65"/>
<path d="M39.8299 47.127C39.4929 47.0243 39.162 46.9294 38.8511 46.8451L39.1942 45.5369C39.5251 45.6227 39.8713 45.7237 40.2267 45.8325L39.8299 47.127Z" fill="#B01E65"/>
<path d="M51.7648 53.3188C51.5948 53.164 51.4048 53.0062 51.2026 52.8408L52.0498 51.7869C52.275 51.9661 52.4833 52.1423 52.6717 52.3138C52.6733 52.3154 52.6733 52.3154 52.6748 52.3169L51.7648 53.3188Z" fill="#B01E65"/>
<path d="M40.3018 46.5632C40.6664 46.6781 41.0402 46.8007 41.4262 46.9385L40.3018 46.5632Z" fill="#FF49B0"/>
<path d="M40.1255 47.2019C40.5024 47.3214 40.8777 47.447 41.2499 47.5772C42.0572 47.8606 42.4034 46.5784 41.6023 46.2981C41.2285 46.1679 40.8547 46.0423 40.4779 45.9228C39.6629 45.6639 39.3136 46.9445 40.1255 47.2019Z" fill="#B01E65"/>
<path d="M48.4408 50.1846C48.8054 50.396 49.1577 50.6058 49.4917 50.8157L48.4408 50.1846Z" fill="#FF49B0"/>
<path d="M48.1067 50.7575C48.4575 50.9628 48.8083 51.1727 49.156 51.3871C49.8837 51.839 50.55 50.6916 49.827 50.2413C49.4792 50.0253 49.13 49.8154 48.7761 49.6101C48.0362 49.1812 47.3683 50.327 48.1067 50.7575Z" fill="#B01E65"/>
<path d="M52.6917 31.5491L51.6362 30.7035C51.7357 30.5764 51.8261 30.4569 51.8889 30.3435L53.0762 30.9915C52.9827 31.1646 52.8479 31.3561 52.6917 31.5491Z" fill="#B01E65"/>
<path d="M53.3183 30.2395L51.9733 30.1047L53.2157 29.5486C53.2923 29.7048 53.3291 29.8764 53.3291 30.071C53.3291 30.1246 53.326 30.1813 53.3183 30.2395Z" fill="#B01E65"/>
<path d="M50.4016 33.611L49.6035 32.5188C49.8715 32.3227 50.1151 32.1328 50.3464 31.9443L51.1966 32.9998C50.95 33.1989 50.6911 33.4027 50.4016 33.611Z" fill="#B01E65"/>
<path d="M53.081 30.9853L51.8922 30.3404C51.929 30.2699 51.9535 30.2025 51.9719 30.1213L53.2954 30.4047C53.2525 30.6115 53.1821 30.8 53.081 30.9853Z" fill="#B01E65"/>
<path d="M51.3819 32.8481L50.5149 31.8079C50.7263 31.6318 50.9239 31.4587 51.097 31.2932L52.0315 32.2721C51.8385 32.4559 51.6163 32.6505 51.3819 32.8481Z" fill="#B01E65"/>
<path d="M52.0513 32.2523L51.1123 31.2764C51.2777 31.1156 51.4202 30.9624 51.5474 30.8123L52.5783 31.687C52.4251 31.8677 52.2551 32.0562 52.0513 32.2523Z" fill="#B01E65"/>
<path d="M33.5093 38.9895L28.0788 27.6504C26.818 25.0156 26.6557 22.0483 27.6269 19.294C28.595 16.5411 30.5819 14.3306 33.2167 13.0699C38.6442 10.4687 45.1839 12.7742 47.7881 18.2124L53.2156 29.5454C53.2156 29.5485 53.2156 29.5485 53.2171 29.55L51.9962 30.1352C51.5229 29.7384 47.9719 30.2455 42.6593 32.7869C37.3452 35.3298 34.718 37.7824 34.741 38.4411L33.5093 38.9895Z" fill="#FFB6DF"/>
<path d="M33.5093 38.9895L28.0788 27.6504C26.818 25.0156 26.6557 22.0483 27.6269 19.294C28.595 16.5411 30.5819 14.3306 33.2167 13.0699C38.6442 10.4687 45.1839 12.7742 47.7881 18.2124L53.2156 29.5454C53.2156 29.5485 53.2156 29.5485 53.2171 29.55L51.9962 30.1352C51.5229 29.7384 47.9719 30.2455 42.6593 32.7869C37.3452 35.3298 34.718 37.7824 34.741 38.4411L33.5093 38.9895ZM37.9135 13.3548C36.5318 13.3548 35.1286 13.6566 33.8004 14.2923C31.4918 15.3984 29.7516 17.3347 28.9029 19.7474C28.0527 22.1586 28.1952 24.7582 29.2997 27.0683L34.0394 36.9659C34.4223 36.4864 34.9754 35.9625 35.6984 35.3911C37.2931 34.1304 39.5588 32.7731 42.0757 31.5675C44.5895 30.365 47.0635 29.4535 49.0412 29.0016C49.9297 28.7994 50.6742 28.6967 51.287 28.6967C51.2931 28.6967 51.3007 28.6967 51.3069 28.6967L46.5657 18.7992C44.9219 15.3647 41.4859 13.3548 37.9135 13.3548Z" fill="#B01E65"/>
<path d="M34.7394 39.7847C34.5219 39.7479 34.3243 39.6851 34.1359 39.5917C34.1359 39.5902 34.1343 39.5901 34.1328 39.5901L34.7394 38.3784C34.8053 38.4106 34.8804 38.4351 34.9677 38.452C34.9708 38.452 34.9723 38.452 34.9723 38.452L34.7394 39.7847Z" fill="#B01E65"/>
<path d="M35.4166 39.8335C35.199 39.8335 34.9984 39.8212 34.8207 39.7967L35.0122 38.4563C35.1408 38.4747 35.2879 38.4808 35.4487 38.4808L35.4564 39.835C35.4441 39.8335 35.4304 39.8335 35.4166 39.8335Z" fill="#B01E65"/>
<path d="M35.6232 39.8323L35.5757 38.4781C35.778 38.4719 35.997 38.452 36.2375 38.4214L36.4198 39.7618C36.1288 39.8016 35.8668 39.8231 35.6232 39.8323Z" fill="#B01E65"/>
<path d="M35.4135 39.8335C35.199 39.8335 34.9984 39.8213 34.8207 39.7968C34.5158 39.7477 34.3197 39.6849 34.1313 39.5915L33.9965 39.5134C33.7667 39.3678 33.6059 39.1978 33.5078 38.9925C33.0712 38.078 33.7882 36.9015 35.6969 35.391C37.2916 34.1303 39.5573 32.773 42.0742 31.5674C44.588 30.3649 47.062 29.4534 49.0397 29.0015C51.4126 28.4638 52.7791 28.64 53.2156 29.553C53.3122 29.7491 53.3458 29.9743 53.3167 30.2408L53.2922 30.4017C53.2494 30.6115 53.1789 30.8015 53.0778 30.9853L53.0196 31.0834C52.9261 31.2396 52.8143 31.3943 52.6887 31.5506L52.5784 31.6854C52.4221 31.8692 52.2521 32.0561 52.0483 32.2522C51.8339 32.4559 51.6133 32.6505 51.3774 32.8481L51.1935 32.9998C50.9469 33.1974 50.685 33.4011 50.3985 33.611C50.089 33.8362 49.7903 34.0399 49.4794 34.2467L49.2419 34.4045C48.9064 34.6236 48.5679 34.8365 48.2094 35.051L47.5139 33.8898C47.8586 33.683 48.1834 33.4762 48.4974 33.274L48.7349 33.1162C49.0229 32.9247 49.3047 32.7317 49.5667 32.5417C49.8669 32.3242 50.1105 32.1327 50.3433 31.9458L50.9438 32.3288L50.5103 31.8095C50.7217 31.6333 50.9193 31.4602 51.0924 31.2948C51.2747 31.1171 51.4172 30.9639 51.5443 30.8153L51.6332 30.7065C51.7328 30.5794 51.8232 30.4599 51.886 30.3465L51.9059 30.3098C51.9365 30.25 51.9534 30.1918 51.9687 30.1244C51.5214 29.7445 47.9674 30.25 42.6578 32.7914C37.3437 35.3344 34.7165 37.7869 34.7395 38.4456C34.8084 38.415 34.8804 38.438 34.9693 38.4548C35.1393 38.4763 35.2741 38.4855 35.4472 38.4824C35.7766 38.4747 35.9956 38.4548 36.2361 38.4242L36.469 39.0722L36.374 38.4012C36.5992 38.369 36.8412 38.3261 37.0955 38.2725L37.4188 38.896L37.2748 38.2342C37.5704 38.1699 37.8829 38.0902 38.2077 37.9999L38.3471 37.9585C38.7239 37.8513 39.0334 37.7563 39.3535 37.6521L39.5297 37.5954C39.8989 37.4729 40.2773 37.3381 40.6633 37.1941L41.1397 38.461C40.7384 38.6141 40.3431 38.7536 39.9632 38.8807L39.8085 38.9313C39.4393 39.0523 39.1146 39.1503 38.7975 39.2407L38.5677 39.3066C38.2184 39.4031 37.8829 39.4873 37.5628 39.5578V39.5593L37.3759 39.5976C37.0909 39.6574 36.8213 39.7064 36.5655 39.7432L36.4062 39.7677C36.1274 39.806 35.8654 39.8274 35.6218 39.8366L35.4518 39.8381C35.4395 39.8335 35.4258 39.8335 35.4135 39.8335Z" fill="#B01E65"/>
<path d="M33.9966 39.5119C33.7683 39.3663 33.6075 39.1963 33.5095 38.991L34.7304 38.4043L33.9966 39.5119Z" fill="#B01E65"/>
<path d="M38.7991 39.2377L38.4268 37.9356C38.7271 37.8498 39.0365 37.7549 39.3567 37.6492L39.7764 38.9375C39.441 39.0478 39.1162 39.1458 38.7991 39.2377Z" fill="#B01E65"/>
<path d="M48.2139 35.0512L47.5184 33.89C47.8631 33.6832 48.1879 33.4764 48.5019 33.2742L49.2403 34.4093C48.9125 34.6222 48.5724 34.8352 48.2139 35.0512Z" fill="#B01E65"/>
<path d="M39.9648 38.8777L39.5359 37.5925C39.9005 37.4714 40.2789 37.3366 40.6649 37.1926L41.1413 38.4595C40.74 38.6096 40.3447 38.7506 39.9648 38.8777Z" fill="#B01E65"/>
<path d="M37.5644 39.5549L37.2764 38.2329C37.572 38.1686 37.8845 38.0889 38.2093 37.9985L38.5708 39.3022C38.22 39.3987 37.8845 39.4845 37.5644 39.5549Z" fill="#B01E65"/>
<path d="M49.4855 34.2467L48.7349 33.1208C49.0275 32.9247 49.3109 32.7317 49.5728 32.5417L50.3709 33.637C50.0937 33.8362 49.7949 34.0399 49.4855 34.2467Z" fill="#B01E65"/>
<path d="M36.5653 39.7389L36.3738 38.3985C36.599 38.3663 36.8411 38.3234 37.0954 38.2698L37.3757 39.5949C37.0908 39.6531 36.8212 39.7021 36.5653 39.7389Z" fill="#B01E65"/>
<path d="M48.8711 33.8411C48.5494 34.0494 48.217 34.2593 47.8662 34.4722L48.8711 33.8411Z" fill="#FF49B0"/>
<path d="M48.5357 33.2681C48.2032 33.4825 47.8678 33.6924 47.5308 33.8992C46.8016 34.3419 47.4679 35.4893 48.2017 35.0451C48.5403 34.8398 48.8742 34.6299 49.2051 34.4154C49.9205 33.9497 49.2556 32.8008 48.5357 33.2681Z" fill="#B01E65"/>
<path d="M40.9022 37.8257C40.5085 37.9727 40.1209 38.1121 39.7487 38.2362L40.9022 37.8257Z" fill="#FF49B0"/>
<path d="M40.726 37.1852C40.343 37.3262 39.9601 37.464 39.5725 37.5958C38.7683 37.8684 39.1129 39.1507 39.9248 38.8749C40.3109 38.7447 40.6954 38.6068 41.0784 38.4644C41.8734 38.1702 41.5303 36.8881 40.726 37.1852Z" fill="#B01E65"/>
<path d="M53.0901 43.449C54.3227 43.449 55.322 42.4498 55.322 41.2171C55.322 39.9844 54.3227 38.9851 53.0901 38.9851C51.8574 38.9851 50.8581 39.9844 50.8581 41.2171C50.8581 42.4498 51.8574 43.449 53.0901 43.449Z" fill="#FFB6DF"/>
<path d="M53.0931 44.1245C51.8615 44.1245 50.7156 43.3371 50.3188 42.104C49.8302 40.5782 50.6712 38.9375 52.2 38.4458C53.7288 37.9495 55.368 38.7981 55.8597 40.3285C56.0971 41.0669 56.0313 41.8558 55.6774 42.5451C55.3235 43.2376 54.72 43.7492 53.9801 43.9866C53.6844 44.0816 53.3857 44.1245 53.0931 44.1245ZM53.09 39.6606C52.9307 39.6606 52.7714 39.6866 52.6121 39.7357C51.7971 39.9976 51.3468 40.8738 51.6087 41.6888C51.8707 42.5068 52.7484 42.9572 53.5649 42.6953C53.9602 42.5681 54.2818 42.2954 54.4718 41.9262C54.6602 41.5571 54.6955 41.1373 54.5699 40.7421C54.4412 40.3453 54.1685 40.0237 53.7978 39.8322C53.5772 39.7188 53.3351 39.6606 53.09 39.6606Z" fill="#B01E65"/>
<path d="M35.6003 53.1748C35.6003 53.1748 31.3126 60.1128 32.8659 64.0911L35.6003 53.1748Z" fill="#FF49B0"/>
<path d="M35.0275 52.8394C33.0866 56.015 30.9803 60.5218 32.2257 64.2673C32.4938 65.0731 33.776 64.7284 33.5048 63.9165C32.3789 60.528 34.4194 56.3781 36.1718 53.5088C36.6192 52.7781 35.4718 52.1117 35.0275 52.8394Z" fill="#B01E65"/>
<path d="M45.6344 40.4659C46.8671 40.4659 47.8663 39.4666 47.8663 38.2339C47.8663 37.0012 46.8671 36.002 45.6344 36.002C44.4017 36.002 43.4024 37.0012 43.4024 38.2339C43.4024 39.4666 44.4017 40.4659 45.6344 40.4659Z" fill="#FFB6DF"/>
<path d="M45.6405 41.1447C45.3555 41.1447 45.0721 41.1034 44.7949 41.0191C43.2599 40.5565 42.3868 38.9311 42.8494 37.3946C43.073 36.6517 43.574 36.0389 44.2587 35.6713C44.9404 35.3051 45.7278 35.2255 46.4723 35.4476C47.2168 35.6713 47.8296 36.1737 48.1957 36.857C48.5633 37.5417 48.643 38.3276 48.4194 39.0736C48.1942 39.8181 47.6932 40.4308 47.0069 40.797C46.5795 41.0283 46.1108 41.1447 45.6405 41.1447ZM45.6328 36.6793C45.3801 36.6793 45.1304 36.742 44.8991 36.8646C44.5329 37.0622 44.2648 37.3885 44.1454 37.7868C44.0259 38.1851 44.0672 38.6064 44.2633 38.9694C44.4594 39.3356 44.7872 39.6036 45.1871 39.7231C45.5853 39.8441 46.0035 39.8028 46.3681 39.6052C46.7343 39.4075 47.0024 39.0813 47.1218 38.683C47.2413 38.2847 47.2015 37.8634 47.0039 37.4988C46.8078 37.1327 46.48 36.8646 46.0817 36.7451C45.9346 36.7007 45.7845 36.6793 45.6328 36.6793Z" fill="#B01E65"/>
<path d="M46.6392 47.9742C47.8719 47.9742 48.8712 46.9749 48.8712 45.7422C48.8712 44.5095 47.8719 43.5103 46.6392 43.5103C45.4065 43.5103 44.4072 44.5095 44.4072 45.7422C44.4072 46.9749 45.4065 47.9742 46.6392 47.9742Z" fill="#FFB6DF"/>
<path d="M46.6361 48.6511C46.3573 48.6511 46.077 48.6113 45.7982 48.5271C45.0552 48.3034 44.4425 47.8025 44.0748 47.1177C43.7071 46.433 43.6275 45.6471 43.8527 44.9026C44.0763 44.1596 44.5773 43.5484 45.262 43.1792C45.9452 42.8116 46.7326 42.7304 47.4756 42.9571C49.0105 43.4197 49.8837 45.0451 49.4211 46.5816C49.0442 47.8377 47.8861 48.6511 46.6361 48.6511ZM46.1888 47.2311C47.0068 47.4793 47.88 47.0105 48.1266 46.1894C48.2461 45.7911 48.2048 45.3714 48.0087 45.0068C47.8126 44.6407 47.4848 44.3726 47.0865 44.2531C46.6897 44.1321 46.2685 44.1765 45.9039 44.3726C45.5378 44.5671 45.2697 44.8965 45.1502 45.2948C45.0307 45.6915 45.0721 46.1113 45.2681 46.4774C45.4657 46.8435 45.7905 47.1116 46.1888 47.2311Z" fill="#B01E65"/>
</svg>
