<svg width="84" height="85" viewBox="0 0 84 85" fill="none" xmlns="http://www.w3.org/2000/svg">
<path d="M41.9991 84.0018C18.8417 84.0018 0 65.16 0 42.0009C0 18.8418 18.8417 0 41.9991 0C65.1583 0 84 18.8418 84 42.0009C84 65.16 65.1583 84.0018 41.9991 84.0018ZM41.9991 1.55462C19.6964 1.55462 1.55285 19.6982 1.55285 42.0009C1.55285 64.3036 19.6964 82.4454 41.9991 82.4454C64.3018 82.4454 82.4454 64.3036 82.4454 42.0009C82.4454 19.6982 64.3001 1.55462 41.9991 1.55462Z" fill="#4FAB1A"/>
<path d="M30.0201 40.2952C29.6965 39.7184 29.4186 39.1082 29.1918 38.4592C28.1049 35.3324 28.6097 32.3885 29.5066 29.3039C30.115 27.2077 29.8759 24.8494 28.5323 22.7478C26.8335 20.0906 23.6011 18.6555 20.4972 19.2025C15.2706 20.124 12.4903 25.4772 14.3526 30.1199C15.8334 33.8095 19.8852 34.8805 22.4756 37.5852C25.3017 40.5362 25.7484 45.0382 25.0151 48.9247C24.7284 50.4389 25.0133 52.0814 26.0386 53.5411C27.3294 55.3806 29.6402 56.3672 31.8596 56.0119C35.8833 55.37 38.0376 51.2777 36.6149 47.7324C36.1752 46.635 35.4454 45.7452 34.552 45.105C32.7108 43.7861 31.1087 42.2315 30.0201 40.2952Z" fill="#A3E07E"/>
<path d="M54.1112 24.8756C53.5362 25.1991 52.9242 25.477 52.277 25.7021C49.1484 26.7889 46.2063 26.2842 43.1199 25.3873C41.0237 24.7788 38.6654 25.018 36.5656 26.3634C33.9083 28.0622 32.4733 31.2945 33.0202 34.3984C33.9417 39.625 39.2967 42.4054 43.9377 40.5413C47.6273 39.0623 48.6983 35.0087 51.4048 32.4182C54.3557 29.5939 58.856 29.1472 62.7443 29.8806C64.2567 30.1655 65.8992 29.8823 67.3606 28.8571C69.1984 27.5662 70.1849 25.2554 69.8315 23.036C69.1878 19.0123 65.0955 16.858 61.5519 18.2808C60.4528 18.7204 59.5647 19.4502 58.9228 20.3436C57.6038 22.1849 56.0475 23.787 54.1112 24.8756Z" fill="#A3E07E"/>
<path d="M40.5874 63.0606C41.0552 62.5928 41.5687 62.1602 42.1315 61.7697C44.8503 59.881 47.8206 59.575 51.0335 59.6067C53.216 59.6278 55.423 58.7625 57.0832 56.9019C59.1829 54.5489 59.6947 51.051 58.3318 48.2091C56.035 43.4239 50.1314 42.1894 46.1622 45.2335C43.0108 47.6534 43.0688 51.8442 41.1625 55.0695C39.082 58.5849 34.8667 60.2292 30.9256 60.5686C29.3903 60.7023 27.885 61.4163 26.7559 62.8003C25.3332 64.5378 25.0044 67.0298 25.9452 69.0697C27.6493 72.7699 32.1707 73.7424 35.2008 71.4192C36.1399 70.6982 36.7994 69.7591 37.1757 68.7251C37.9495 66.5919 39.0152 64.6292 40.5874 63.0606Z" fill="#A3E07E"/>
<path d="M15.267 47.467C17.0192 47.467 18.4395 46.0466 18.4395 44.2945C18.4395 42.5423 17.0192 41.1219 15.267 41.1219C13.5149 41.1219 12.0945 42.5423 12.0945 44.2945C12.0945 46.0466 13.5149 47.467 15.267 47.467Z" fill="#A3E07E"/>
<path d="M48.2304 21.0138C49.9826 21.0138 51.403 19.5934 51.403 17.8412C51.403 16.0891 49.9826 14.6687 48.2304 14.6687C46.4783 14.6687 45.0579 16.0891 45.0579 17.8412C45.0579 19.5934 46.4783 21.0138 48.2304 21.0138Z" fill="#A3E07E"/>
<path d="M46.7092 71.609C48.4613 71.609 49.8817 70.1886 49.8817 68.4365C49.8817 66.6843 48.4613 65.2639 46.7092 65.2639C44.9571 65.2639 43.5367 66.6843 43.5367 68.4365C43.5367 70.1886 44.9571 71.609 46.7092 71.609Z" fill="#A3E07E"/>
<path fill-rule="evenodd" clip-rule="evenodd" d="M49.234 21.7911C47.5634 21.7911 46.0087 20.7236 45.4706 19.0494C44.8041 16.976 45.949 14.7461 48.0224 14.0813C50.1045 13.4095 52.3222 14.5614 52.9887 16.6331C53.314 17.6372 53.2243 18.7082 52.7407 19.6473C52.2606 20.5847 51.4411 21.2793 50.4369 21.5994C50.0377 21.7295 49.6315 21.7911 49.234 21.7911ZM49.2288 15.4478C48.9878 15.4478 48.7416 15.4847 48.4989 15.5621C47.2415 15.9648 46.5469 17.3172 46.9496 18.5746C47.3541 19.8302 48.7135 20.5196 49.9621 20.1221L49.9639 20.1204C50.5723 19.927 51.0683 19.5049 51.362 18.9368C51.6539 18.3671 51.7066 17.7199 51.5114 17.1114C51.1843 16.0949 50.2417 15.4478 49.2288 15.4478ZM37.6676 40.7874C38.9989 41.526 40.4673 41.9024 41.9445 41.9024C43.0542 41.9024 44.1657 41.6896 45.2296 41.264C47.7542 40.2496 49.1328 38.1807 50.4672 36.1782L50.4685 36.1763C51.2493 35.0033 51.9862 33.8972 52.9411 32.9827C56.3651 29.7046 61.5372 30.2568 63.6018 30.6437C65.4114 30.9884 67.265 30.5787 68.8091 29.4936C70.9071 28.0199 72.0027 25.4382 71.6017 22.9146C71.2623 20.8008 70.0207 18.9947 68.1953 17.9607C66.3681 16.9283 64.2068 16.7806 62.2653 17.5614C61.0747 18.038 60.0477 18.8435 59.2932 19.8916C57.8811 21.8577 56.3898 23.2681 54.7331 24.1984C54.1792 24.508 53.6041 24.7664 53.022 24.9687C50.1643 25.9623 47.4842 25.5578 44.338 24.6416C41.883 23.9311 39.333 24.3075 37.1453 25.7073C34.2172 27.582 32.6538 31.1274 33.2552 34.5338C33.7265 37.2122 35.3357 39.4913 37.6676 40.7874ZM37.9824 27.0175C39.1941 26.2437 40.5394 25.8462 41.9006 25.8462C42.5688 25.8462 43.2424 25.9412 43.9054 26.1329C46.8739 26.9929 50.0939 27.626 53.532 26.4354C54.2003 26.2033 54.8598 25.906 55.4911 25.5525L55.4929 25.5508C57.3535 24.5062 59.0083 22.9516 60.5559 20.7973C61.1362 19.9901 61.9276 19.3693 62.8438 19.0017C64.3475 18.3968 66.0146 18.5111 67.4286 19.3095C68.8407 20.1097 69.8027 21.5113 70.0647 23.1573C70.3689 25.0672 69.5037 27.1019 67.9139 28.2204C66.7146 29.0628 65.2866 29.3793 63.8885 29.1155C59.0206 28.201 54.6417 29.1982 51.8649 31.8589C50.7886 32.893 49.9673 34.1223 49.1724 35.3146C47.9168 37.2051 46.7279 38.9866 44.6475 39.8219C42.6128 40.6397 40.3442 40.4937 38.422 39.4298C36.5016 38.3605 35.1774 36.4788 34.7852 34.2647C34.2911 31.4685 35.5766 28.558 37.9824 27.0175ZM26.4021 53.9875C27.6736 55.7989 29.7698 56.8629 31.9382 56.8629C32.2864 56.8629 32.6346 56.8365 32.9846 56.782C35.1002 56.4426 36.9063 55.201 37.9403 53.3755C38.9744 51.5501 39.1186 49.3888 38.3378 47.4455C37.8612 46.2549 37.054 45.2262 36.0059 44.4752C34.038 43.0648 32.6293 41.5735 31.7008 39.9134H31.699C31.3913 39.3682 31.1328 38.7932 30.9288 38.2023C29.9369 35.348 30.3414 32.6661 31.2541 29.5182C31.9663 27.0667 31.5865 24.5132 30.1884 22.3255C28.3137 19.3974 24.7701 17.8288 21.3619 18.4372C18.6836 18.9103 16.4044 20.5177 15.1101 22.8478C13.814 25.178 13.6399 27.9373 14.6317 30.4099C15.6447 32.9335 17.7163 34.314 19.7194 35.6488L19.7261 35.6533C20.8966 36.4324 22.002 37.1683 22.9148 38.1214C26.1928 41.5471 25.6406 46.7174 25.2502 48.7803C24.9073 50.5934 25.317 52.4435 26.4021 53.9875ZM21.631 19.969C22.0284 19.8987 22.4294 19.8635 22.8286 19.8635C25.2291 19.8635 27.5575 21.1015 28.88 23.1644C30.0319 24.9687 30.3449 27.0702 29.7593 29.0856C28.8993 32.0577 28.2662 35.2812 29.4586 38.7122C29.6925 39.3911 29.9914 40.0505 30.3414 40.6749C31.386 42.5355 32.9406 44.1903 35.0984 45.7379C35.9056 46.3165 36.5264 47.1061 36.894 48.0241C37.4972 49.5242 37.3846 51.1949 36.5862 52.607C35.786 54.0209 34.3844 54.9829 32.7366 55.2449C30.8391 55.5527 28.7938 54.6857 27.6753 53.0942C26.8329 51.8966 26.5164 50.4668 26.7784 49.0687C27.6964 44.2079 26.6975 39.8272 24.0385 37.0486C23.0045 35.9706 21.7734 35.1493 20.5811 34.3562L20.5787 34.3546C18.6891 33.096 16.907 31.9091 16.0738 29.8313C15.2578 27.7931 15.4002 25.5244 16.4677 23.604C17.5352 21.6854 19.4151 20.3594 21.631 19.969ZM32.5131 73.4503C31.9609 73.4503 31.4034 73.3835 30.853 73.2463C28.8183 72.7433 27.1353 71.3364 26.2401 69.3914C25.1709 67.0718 25.5314 64.2897 27.1564 62.3042C28.3505 60.8446 30.0211 59.9512 31.8606 59.7912C33.9516 59.61 39.0797 58.7501 41.4961 54.6701C42.1695 53.5342 42.581 52.2683 43.017 50.9268L43.0173 50.926L43.0181 50.9235C43.7635 48.6363 44.534 46.2721 46.691 44.6161C48.8066 42.9929 51.5061 42.4196 54.1018 43.0386C56.6957 43.6577 58.8588 45.4198 60.0371 47.8695C61.5319 50.9875 60.9797 54.8266 58.6671 57.4205C56.9402 59.355 54.5889 60.4225 52.0301 60.3838C48.7363 60.3732 46.0579 60.6845 43.58 62.408C43.0683 62.7632 42.5846 63.1695 42.1415 63.6126C40.7926 64.958 39.7357 66.7183 38.9091 68.9905C38.4677 70.2004 37.6957 71.2538 36.6775 72.0346C35.4588 72.9631 34.0009 73.4503 32.5131 73.4503ZM52.0407 44.347C50.465 44.347 48.9191 44.8641 47.6371 45.8489C45.8626 47.2074 45.1987 49.2421 44.4968 51.3936L44.4927 51.4061L44.4874 51.4226C44.0459 52.7786 43.5893 54.1811 42.8326 55.4614C40.8718 58.7729 36.9219 60.9149 31.9925 61.3405C30.5751 61.4618 29.2843 62.1547 28.3575 63.2873C27.1265 64.7926 26.8433 66.9856 27.6523 68.7425C28.3487 70.2566 29.6536 71.347 31.2275 71.7374C32.8068 72.1278 34.444 71.7831 35.7278 70.8C36.5122 70.1986 37.1066 69.3879 37.446 68.4576C38.3534 65.9656 39.5282 64.0224 41.0406 62.5117C41.5506 62.0017 42.1063 61.5374 42.6919 61.1312C45.6745 59.056 48.9385 58.7993 52.0442 58.8274H52.1163C54.1844 58.8274 56.0978 57.9622 57.5065 56.383C59.4075 54.2515 59.8612 51.1001 58.6337 48.5413C57.6595 46.5154 55.878 45.061 53.7413 44.5475C53.175 44.4139 52.6052 44.347 52.0407 44.347ZM12.5089 45.5025C13.0471 47.1767 14.5999 48.2424 16.2706 48.2424C16.6698 48.2424 17.0743 48.1826 17.4753 48.0525C18.4794 47.7324 19.3007 47.0378 19.7808 46.0987C20.2644 45.1613 20.3523 44.0903 20.0288 43.0862C19.3622 41.0128 17.1306 39.8644 15.0624 40.5344C14.0583 40.8545 13.2388 41.5509 12.7569 42.4882C12.2733 43.4273 12.1854 44.4983 12.5089 45.5025ZM15.5355 42.0152C15.7782 41.9378 16.0227 41.9009 16.2653 41.9009C17.2783 41.9009 18.2227 42.548 18.548 43.5628C18.7432 44.173 18.6905 44.8202 18.3985 45.39C18.1048 45.958 17.6089 46.38 17.0004 46.5735L16.9987 46.5753C15.7501 46.9727 14.3906 46.2833 13.9879 45.0259C13.5834 43.7703 14.2781 42.4179 15.5355 42.0152ZM45.9051 71.9483C46.4713 72.2403 47.0851 72.388 47.7059 72.388C48.1103 72.388 48.5201 72.3247 48.9193 72.1945C50.9909 71.5298 52.1358 69.3034 51.471 67.2282C50.8063 65.1566 48.5799 64.0082 46.503 64.6782C44.4313 65.343 43.2865 67.5694 43.9512 69.6446C44.2713 70.6487 44.9677 71.4682 45.9051 71.9483ZM46.9778 66.1537C47.2205 66.0781 47.4649 66.0412 47.7076 66.0412C48.7206 66.0412 49.665 66.6901 49.9903 67.7031C50.393 68.9605 49.6984 70.3128 48.4409 70.7173C47.1923 71.1148 45.8329 70.4254 45.4302 69.168C45.0275 67.9106 45.7204 66.5582 46.9778 66.1537Z" fill="#4FAB1A"/>
</svg>
