<svg width="84" height="85" viewBox="0 0 84 85" fill="none" xmlns="http://www.w3.org/2000/svg">
<path d="M41.9991 84.0018C18.8417 84.0018 0 65.16 0 42.0009C0 18.8418 18.8417 0 41.9991 0C65.1583 0 84 18.8418 84 42.0009C84 65.16 65.1583 84.0018 41.9991 84.0018ZM41.9991 1.55462C19.6964 1.55462 1.55285 19.6982 1.55285 42.0009C1.55285 64.3036 19.6964 82.4454 41.9991 82.4454C64.3018 82.4454 82.4454 64.3036 82.4454 42.0009C82.4454 19.6982 64.3001 1.55462 41.9991 1.55462Z" fill="#D8AA06"/>
<path fill-rule="evenodd" clip-rule="evenodd" d="M57.1975 21.9008L62.6092 20.6652C62.9939 20.5779 63.3387 20.9182 63.2588 21.3015L57.2078 50.3607C57.207 50.3657 57.2043 50.3702 57.2016 50.3748C57.1995 50.3784 57.1973 50.382 57.196 50.3859C57.1443 50.5826 56.9937 50.7244 56.8144 50.7734C56.772 50.9878 56.6209 51.1767 56.397 51.2559L24.0304 62.4404L21.5028 63.3135C20.9997 63.4866 20.5173 63.0072 20.6889 62.504L24.0304 52.6898L32.415 28.0568C32.4932 27.8268 32.6916 27.6688 32.9197 27.6327C32.99 27.4998 33.1155 27.3954 33.2777 27.3584L57.1975 21.9008Z" fill="#FDED84"/>
<path fill-rule="evenodd" clip-rule="evenodd" d="M57.3341 51.252C57.556 51.1053 57.7223 50.8893 57.8059 50.6446L63.9013 21.4404C63.9841 21.0408 63.8583 20.6309 63.5683 20.3439C63.2783 20.0597 62.8654 19.9384 62.4658 20.0302L33.1343 26.7219C32.8941 26.7751 32.6813 26.899 32.5196 27.075C32.1906 27.2138 31.9196 27.4849 31.7951 27.8465L20.069 62.2923C19.9107 62.7614 20.029 63.2719 20.3812 63.6226C20.6284 63.8698 20.9539 64 21.2899 64C21.4319 64 21.574 63.9778 21.7175 63.929L56.6117 51.8729C56.9234 51.7641 57.1816 51.5412 57.3341 51.252ZM56.828 48.9923L62.1392 23.4752C59.7366 27.069 55.424 33.6922 52.0186 38.9414L56.828 48.9923ZM35.5498 27.5107L60.2789 21.8698L47.861 30.4776C47.6995 30.3322 47.5016 30.229 47.2814 30.1787L35.5498 27.5107ZM60.8291 23.0771L48.5127 31.6147L51.3553 37.5553C54.5816 32.5838 58.4877 26.588 60.8291 23.0771ZM50.5205 38.8422L47.4233 32.3699L39.0175 38.1968L46.355 45.2773C47.0766 44.1606 48.6352 41.7497 50.5205 38.8422ZM38.2389 37.1473L46.5948 31.3552L33.8162 28.4572L38.2389 37.1473ZM33.5478 30.8106L37.1621 37.9116L34.226 40.064L33.5478 30.8106ZM32.2215 30.6127L32.9995 41.2193L22.8712 58.1174L32.2215 30.6127ZM33.7928 42.3429L22.3109 61.5908L40.7958 49.291L33.7928 42.3429ZM34.6643 41.3632L41.909 48.5503L45.4341 46.2048L37.9363 38.9635L34.6643 41.3632ZM41.9907 50.0543C45.8697 50.4031 51.5572 50.9664 54.1644 51.332L24.8811 61.4512L41.9907 50.0543ZM43.737 48.8973L46.5367 47.0436L52.7388 49.8071C50.8522 49.572 48.0122 49.2865 43.737 48.8973ZM55.7184 49.7043L47.4349 46.0201C48.0914 45.0044 49.4787 42.8587 51.1839 40.2284L55.7184 49.7043Z" fill="#D8AA06"/>
</svg>
