<svg width="63" height="63" viewBox="0 0 63 63" fill="none" xmlns="http://www.w3.org/2000/svg">
<path d="M31.868 62.1888C14.7757 62.1888 0.868652 48.2821 0.868652 31.1888C0.868652 14.0955 14.7757 0.188782 31.868 0.188782C48.9616 0.188782 62.8686 14.0955 62.8686 31.1888C62.8686 48.2821 48.9616 62.1888 31.868 62.1888ZM31.868 1.33621C15.4065 1.33621 2.0148 14.7276 2.0148 31.1888C2.0148 47.65 15.4065 61.0401 31.868 61.0401C48.3295 61.0401 61.7212 47.65 61.7212 31.1888C61.7212 14.7276 48.3282 1.33621 31.868 1.33621Z" fill="#D8AA06"/>
<path fill-rule="evenodd" clip-rule="evenodd" d="M43.0857 16.3533L47.08 15.4413C47.364 15.3768 47.6185 15.628 47.5595 15.9109L43.0933 37.3589C43.0927 37.3626 43.0907 37.366 43.0887 37.3693C43.0871 37.372 43.0856 37.3746 43.0846 37.3775C43.0464 37.5227 42.9353 37.6274 42.8029 37.6635C42.7716 37.8218 42.6601 37.9612 42.4948 38.0197L18.6052 46.2747L16.7396 46.9191C16.3683 47.0469 16.0122 46.693 16.1389 46.3217L18.6052 39.078L24.7939 20.8969C24.8515 20.7271 24.998 20.6105 25.1664 20.5839C25.2183 20.4858 25.3109 20.4087 25.4306 20.3814L43.0857 16.3533Z" fill="#FFDD00"/>
<path fill-rule="evenodd" clip-rule="evenodd" d="M43.1865 38.0168C43.3503 37.9085 43.473 37.7491 43.5347 37.5686L48.0337 16.0135C48.0948 15.7186 48.002 15.4161 47.7879 15.2042C47.5738 14.9945 47.2691 14.9049 46.9742 14.9726L25.3247 19.9117C25.1474 19.9509 24.9904 20.0424 24.871 20.1723C24.6282 20.2747 24.4282 20.4749 24.3363 20.7417L15.6813 46.1654C15.5644 46.5117 15.6518 46.8885 15.9118 47.1474C16.0942 47.3298 16.3345 47.4259 16.5824 47.4259C16.6873 47.4259 16.7921 47.4095 16.8981 47.3734L42.6533 38.4751C42.8834 38.3948 43.074 38.2302 43.1865 38.0168ZM42.8129 36.3489L46.733 17.5155C44.9597 20.1681 41.7766 25.0564 39.2631 28.9307L42.8129 36.3489ZM27.1076 20.4939L45.3601 16.3304L36.1944 22.6837C36.0753 22.5764 35.9292 22.5002 35.7666 22.4631L27.1076 20.4939ZM45.7662 17.2215L36.6755 23.523L38.7736 27.9077C41.1549 24.2382 44.038 19.8129 45.7662 17.2215ZM38.1574 28.8575L35.8714 24.0804L29.6671 28.3811L35.0829 33.6071C35.6155 32.7829 36.7659 31.0034 38.1574 28.8575ZM29.0924 27.6065L35.2599 23.3314L25.828 21.1924L29.0924 27.6065ZM25.6299 22.9294L28.2976 28.1706L26.1305 29.7593L25.6299 22.9294ZM24.651 22.7835L25.2252 30.6121L17.7495 43.0842L24.651 22.7835ZM25.8108 31.4413L17.3361 45.6477L30.9797 36.5695L25.8108 31.4413ZM26.454 30.7182L31.8013 36.0228L34.4031 34.2916L28.8691 28.947L26.454 30.7182ZM31.8617 37.1328C34.7247 37.3903 38.9226 37.8061 40.8469 38.0759L19.2332 45.5446L31.8617 37.1328ZM33.1506 36.2789L35.217 34.9107L39.7947 36.9504C38.4022 36.7769 36.306 36.5661 33.1506 36.2789ZM41.9939 36.8745L35.88 34.1553C36.3645 33.4057 37.3885 31.822 38.6471 29.8806L41.9939 36.8745Z" fill="#D8AA06"/>
</svg>
