<svg width="24" height="26" viewBox="0 0 24 26" fill="none" xmlns="http://www.w3.org/2000/svg">
<g filter="url(#filter0_b_4454_645)">
<path d="M20.4097 6.55994C25.2043 9.34784 25.1949 16.3012 20.3927 19.076L10.7879 24.626C5.98573 27.4008 -0.00752267 23.9159 7.088e-06 18.3532L0.0150675 7.22712C0.0225972 1.6644 6.02528 -1.80409 10.8199 0.983808L20.4097 6.55994Z" fill="#A3E07E"/>
</g>
<path d="M14.2803 13.2803C14.5732 12.9874 14.5732 12.5126 14.2803 12.2197L9.50736 7.4467C9.21447 7.15381 8.73959 7.15381 8.4467 7.4467C8.15381 7.73959 8.15381 8.21447 8.4467 8.50736L12.6893 12.75L8.4467 16.9926C8.15381 17.2855 8.15381 17.7604 8.4467 18.0533C8.73959 18.3462 9.21447 18.3462 9.50736 18.0533L14.2803 13.2803ZM12.25 13.5H13.75V12H12.25V13.5Z" fill="white"/>
<defs>
<filter id="filter0_b_4454_645" x="-20" y="-20" width="64" height="65.6" filterUnits="userSpaceOnUse" color-interpolation-filters="sRGB">
<feFlood flood-opacity="0" result="BackgroundImageFix"/>
<feGaussianBlur in="BackgroundImageFix" stdDeviation="10"/>
<feComposite in2="SourceAlpha" operator="in" result="effect1_backgroundBlur_4454_645"/>
<feBlend mode="normal" in="SourceGraphic" in2="effect1_backgroundBlur_4454_645" result="shape"/>
</filter>
</defs>
</svg>
